<svg xmlns="http://www.w3.org/2000/svg" width="60" height="60" viewBox="0 0 60 60">
  <g id="Group_915" data-name="Group 915" transform="translate(-1435 -858)">
    <g id="Group_591" data-name="Group 591" transform="translate(1435 858)">
      <rect id="Rectangle_60" data-name="Rectangle 60" width="60" height="60" fill="#fff"/>
      <g id="Group_14" data-name="Group 14" transform="translate(6 1.2)">
        <path id="Path_76" data-name="Path 76" d="M183.08,25.66V15.7a14.4,14.4,0,0,0-28.8,0v9.96H144.2V57.22h48.96V25.66Zm-24-10.08a9.6,9.6,0,0,1,19.2,0v9.96h-19.2ZM191.96,55.9H145.4V26.86h46.56Z" transform="translate(-144.2 -1.3)" fill="#53ae3b"/>
        <path id="Path_77" data-name="Path 77" d="M157.9,39.38a7.772,7.772,0,0,1-3.84-1.08l-1.56,3.48a12.22,12.22,0,0,0,5.64,1.32c4.56,0,6.48-2.4,6.48-4.8a4.178,4.178,0,0,0-3.36-4.08l2.64-2.64V28.7H153.1v3.6h5.04l-2.04,2.16v2.88h1.92c1.2,0,1.68.36,1.68.96C159.7,39.02,158.98,39.38,157.9,39.38Z" transform="translate(-142.54 4.18)" fill="#53ae3b"/>
        <path id="Path_78" data-name="Path 78" d="M178.8,35.78c0-4.44-3.24-7.08-8.04-7.08H163.8V42.86h6.96C175.56,42.86,178.8,40.1,178.8,35.78Zm-10.2,3.36V32.42h2.04A3.091,3.091,0,0,1,174,35.78a3.091,3.091,0,0,1-3.36,3.36Z" transform="translate(-140.28 4.18)" fill="#53ae3b"/>
      </g>
    </g>
  </g>
</svg>
