<svg xmlns="http://www.w3.org/2000/svg" width="32" height="32"><g data-name="Group 873"><path data-name="Path 68" d="M17.987 8.763a4.03 4.03 0 0 0 2.135 3.568 1.335 1.335 0 1 0 1.507-2.2c-.859-.587-.994-.853-.977-1.214.136-1.155 3.47-5.706 4.513-6.161a1.381 1.381 0 0 1 .974.013 4.607 4.607 0 0 1 2.882 2.28 4.283 4.283 0 0 1-.116 3.431 37.727 37.727 0 0 1-8.057 12.379 37.722 37.722 0 0 1-12.364 8.047 4.285 4.285 0 0 1-3.432.116 4.605 4.605 0 0 1-2.288-2.88 1.379 1.379 0 0 1-.014-.972c.457-1.046 5.007-4.381 6.15-4.515.374-.019.64.117 1.227.975a1.335 1.335 0 1 0 2.2-1.506 4.026 4.026 0 0 0-3.563-2.136c-2.133.116-7.78 4.264-8.509 6.247a4.036 4.036 0 0 0-.016 2.757 7.185 7.185 0 0 0 3.7 4.456 6.871 6.871 0 0 0 5.551-.07 40.377 40.377 0 0 0 13.245-8.629l.027-.027a40.387 40.387 0 0 0 8.616-13.23A7.92 7.92 0 0 0 32 6.511a6.119 6.119 0 0 0-.551-2.57A7.184 7.184 0 0 0 26.991.236 4.037 4.037 0 0 0 24.24.25c-1.988.73-6.137 6.377-6.253 8.513z" fill="#b2e1a6"/></g></svg>