<svg xmlns="http://www.w3.org/2000/svg" width="50.002" height="50"><g data-name="Group 888"><g data-name="Group 776"><path data-name="Rectangle 989" fill="rgba(255,255,255,0)" d="M.124 0H50v50H.124z"/><g data-name="001-rocket"><g data-name="Group 734"><g data-name="Group 733"><path data-name="Path 2404" d="M22.528 24.219l-1.752-1.075.5-1.995a.634.634 0 0 0-.917-.71l-1.807.979-1.479-1.427a.634.634 0 0 0-1.074.439l-.056 2.055-1.975.568a.634.634 0 0 0-.157 1.15l1.752 1.076-.5 1.995a.634.634 0 0 0 .917.71l1.807-.979 1.479 1.427a.634.634 0 0 0 1.074-.439l.056-2.055 1.975-.568a.634.634 0 0 0 .157-1.15zm-2.929.627a.634.634 0 0 0-.459.592l-.029 1.081-.778-.751a.634.634 0 0 0-.742-.1l-.951.515.261-1.05a.634.634 0 0 0-.284-.693l-.922-.566 1.039-.3a.634.634 0 0 0 .459-.592l.029-1.081.779.751a.634.634 0 0 0 .742.1l.951-.515-.261 1.05a.634.634 0 0 0 .284.693l.922.566z" fill="#53ae3b"/></g></g><g data-name="Group 736"><g data-name="Group 735"><path data-name="Path 2405" d="M12.362 21.412l-6.209-2.12a.634.634 0 1 0-.41 1.2l6.209 2.12a.634.634 0 1 0 .41-1.2z" fill="#53ae3b"/></g></g><g data-name="Group 738"><g data-name="Group 737"><path data-name="Path 2406" d="M17.021 17.45l-2.342-8.045a.634.634 0 1 0-1.218.354l2.341 8.045a.634.634 0 0 0 1.218-.354z" fill="#53ae3b"/></g></g><g data-name="Group 740"><g data-name="Group 739"><path data-name="Path 2407" d="M28.099 11.388a.634.634 0 0 0-.89.113l-5.393 6.965a.634.634 0 1 0 1 .776l5.394-6.965a.634.634 0 0 0-.111-.889z" fill="#53ae3b"/></g></g><g data-name="Group 742"><g data-name="Group 741"><path data-name="Path 2408" d="M21.074 11.165a.634.634 0 0 0-.757.481l-1.628 7.31a.634.634 0 1 0 1.238.276l1.628-7.31a.634.634 0 0 0-.481-.757z" fill="#53ae3b"/></g></g><g data-name="Group 744"><g data-name="Group 743"><path data-name="Path 2409" d="M14.52 19.151l-3.206-3.608a.634.634 0 1 0-.948.842l3.206 3.608a.634.634 0 0 0 .948-.842z" fill="#53ae3b"/></g></g><g data-name="Group 746"><g data-name="Group 745"><path data-name="Path 2410" d="M12.409 24.667a.634.634 0 0 0-.682-.582l-3.652.289a.634.634 0 0 0 .049 1.266h.051l3.652-.289a.634.634 0 0 0 .582-.684z" fill="#53ae3b"/></g></g><g data-name="Group 748"><g data-name="Group 747"><path data-name="Path 2411" d="M14.874 5.309a1.989 1.989 0 1 0-3.192 1.824 1.974 1.974 0 0 0 1.214.417 2.008 2.008 0 0 0 .255-.016 1.99 1.99 0 0 0 1.723-2.225zm-1.4.693a.721.721 0 1 1 .145-.533.716.716 0 0 1-.145.533z" fill="#53ae3b"/></g></g><g data-name="Group 750"><g data-name="Group 749"><path data-name="Path 2412" d="M3.963 18.289a1.989 1.989 0 1 0-1.978 2.241 2.041 2.041 0 0 0 .255-.016 1.989 1.989 0 0 0 1.723-2.224zm-1.4.692a.721.721 0 1 1-.661-1.157.74.74 0 0 1 .092-.006.721.721 0 0 1 .569 1.163z" fill="#53ae3b"/></g></g><g data-name="Group 752"><g data-name="Group 751"><path data-name="Path 2413" d="M31.417 7.101a1.989 1.989 0 1 0 .355 2.791 1.976 1.976 0 0 0-.355-2.791zm-.648 2.015a.721.721 0 1 1-.129-1.012.722.722 0 0 1 .132 1.012z" fill="#53ae3b"/></g></g><g data-name="Group 754"><g data-name="Group 753"><path data-name="Path 2414" d="M25.938 34.613l-3.606-5.481a.635.635 0 0 0-1.059.7l3.606 5.481a.635.635 0 0 0 1.059-.7z" fill="#53ae3b"/></g></g><g data-name="Group 756"><g data-name="Group 755"><path data-name="Path 2415" d="M33.378 23.886l-8.375-.254a.634.634 0 0 0-.038 1.268l8.375.254h.02a.634.634 0 0 0 .019-1.268z" fill="#53ae3b"/></g></g><g data-name="Group 758"><g data-name="Group 757"><path data-name="Path 2416" d="M30.076 18.134a.634.634 0 0 0-.853-.276l-6.67 3.405a.634.634 0 1 0 .577 1.129l6.67-3.405a.634.634 0 0 0 .276-.853z" fill="#53ae3b"/></g></g><g data-name="Group 760"><g data-name="Group 759"><path data-name="Path 2417" d="M28.274 28.679l-4.3-2.2a.634.634 0 0 0-.578 1.128l4.3 2.2a.634.634 0 1 0 .578-1.128z" fill="#53ae3b"/></g></g><g data-name="Group 762"><g data-name="Group 761"><path data-name="Path 2418" d="M20.537 34.025l-.634-3.608a.634.634 0 1 0-1.249.22l.634 3.608a.634.634 0 1 0 1.249-.22z" fill="#53ae3b"/></g></g><g data-name="Group 764"><g data-name="Group 763"><path data-name="Path 2419" d="M38.763 23.074a1.989 1.989 0 1 0-1.222 3.563 2.026 2.026 0 0 0 .255-.016 1.989 1.989 0 0 0 .967-3.546zm-.648 2.015a.721.721 0 1 1-.661-1.157.726.726 0 0 1 .092-.006.721.721 0 0 1 .569 1.163z" fill="#53ae3b"/></g></g><g data-name="Group 766"><g data-name="Group 765"><path data-name="Path 2420" d="M28.926 36.884a1.989 1.989 0 1 0-1.222 3.563 2.017 2.017 0 0 0 .255-.016 1.989 1.989 0 0 0 .967-3.546zm-.648 2.015a.721.721 0 1 1-.129-1.012.717.717 0 0 1 .129 1.011z" fill="#53ae3b"/></g></g><g data-name="Group 768"><g data-name="Group 767"><path data-name="Path 2421" d="M13.85 28.822a.634.634 0 0 0-.9.014c-.315.325-7.759 8.076-11.238 17.156a.634.634 0 1 0 1.184.454c3.385-8.833 10.89-16.65 10.965-16.728a.634.634 0 0 0-.011-.896z" fill="#53ae3b"/></g></g></g></g></g></svg>