<svg xmlns="http://www.w3.org/2000/svg" width="50" height="50"><g data-name="Group 887"><g data-name="Group 775"><path data-name="Rectangle 988" fill="rgba(255,255,255,0)" d="M0 0h50v50H0z"/><g data-name="002-jigsaw"><g data-name="Group 770"><g data-name="Group 769"><path data-name="Path 2422" d="M27.469 7.143h-23A4.478 4.478 0 0 0 0 11.615v22.944a4.478 4.478 0 0 0 4.472 4.472h7.027v-1.278H4.472a3.2 3.2 0 0 1-3.194-3.194V23.752h4.1a.687.687 0 0 0 .585-.948 2.555 2.555 0 1 1 4.679 0 .663.663 0 0 0 .585.948h4.1v3.833a3.739 3.739 0 0 0-.639-.053 3.833 3.833 0 0 0-1.533 7.346l.511-1.17a2.555 2.555 0 0 1 1.022-4.9 2.524 2.524 0 0 1 1.022.216.639.639 0 0 0 .894-.585v-4.687h3.248a3.74 3.74 0 0 0-.054.639 3.844 3.844 0 0 0 3.072 3.752l.256-1.251a2.564 2.564 0 0 1-2.044-2.5 2.524 2.524 0 0 1 .216-1.022.639.639 0 0 0-.585-.894h-4.1v-3.25a3.74 3.74 0 0 0 .639.054 3.833 3.833 0 0 0 0-7.666 3.74 3.74 0 0 0-.639.054V8.421h10.86a3.2 3.2 0 0 1 3.194 3.194v10.86h-4.1a.639.639 0 0 0-.585.894 2.524 2.524 0 0 1 .216 1.022h1.278a3.74 3.74 0 0 0-.054-.639h3.88a.639.639 0 0 0 .639-.639V11.615a4.478 4.478 0 0 0-4.472-4.472zm-10.221 5.749a2.555 2.555 0 0 1 0 5.111 2.524 2.524 0 0 1-1.022-.216.639.639 0 0 0-.894.585v4.049h-3.244a3.73 3.73 0 0 0 .05-.586v-.052a3.833 3.833 0 0 0-7.666 0v.053a3.73 3.73 0 0 0 .05.586H1.278V11.615a3.2 3.2 0 0 1 3.194-3.194h10.86v4.1a.639.639 0 0 0 .894.585 2.524 2.524 0 0 1 1.022-.214z" fill="#53ae3b"/></g></g><g data-name="Group 772"><g data-name="Group 771"><path data-name="Path 2423" d="M36.962 34.601l-5.371-3.7-2.063-5.511a.639.639 0 0 0-.822-.376l-.035.014-4.152 1.837a.639.639 0 0 0-.339.813c.069.179.133.314.2.455a4.871 4.871 0 0 1 .209.48 2.556 2.556 0 1 1-4.941.768.639.639 0 0 0-.864-.631l-4.438 1.672a.639.639 0 0 0-.373.822l1.593 4.256a3.6 3.6 0 0 0-.62.171 3.841 3.841 0 1 0 3.274 6.919l1.142 3.051a.639.639 0 0 0 .822.374l6.329-2.385a3.43 3.43 0 0 0 2.023 1.807l.4-1.214a2.154 2.154 0 0 1-1.221-1.044l1.926-.725a4.458 4.458 0 0 0 4.207 2.965v-1.278a3.214 3.214 0 0 1-3.194-3.194.639.639 0 0 0-.187-.452l-2.224-2.224a.947.947 0 0 1-.088-1.232.93.93 0 0 1 .687-.374.916.916 0 0 1 .733.274l4.46 4.46.9-.9-1.32-1.32a4.456 4.456 0 0 0-.057-2.986l-1.2-3.2 3.86 2.658a1.92 1.92 0 0 1 .817 1.57v8.252h1.278v-8.252a3.2 3.2 0 0 0-1.351-2.62zm-4.588 2.037a3.2 3.2 0 0 1 .187 1.471l-2.074-2.073a2.22 2.22 0 1 0-3.179 3.1l.04.04 2.021 2.021-9.028 3.4-1.218-3.253a.639.639 0 0 0-.459-.4.649.649 0 0 0-.139-.015.639.639 0 0 0-.447.182 2.555 2.555 0 1 1-2.675-4.241 2.459 2.459 0 0 1 .632-.143 2.267 2.267 0 0 1 .4-.013.639.639 0 0 0 .632-.862l-1.669-4.455 3.042-1.145a3.834 3.834 0 1 0 7.351-2.081 5.86 5.86 0 0 0-.163-.393l2.939-1.3z" fill="#53ae3b"/></g></g></g></g></g></svg>