<svg xmlns="http://www.w3.org/2000/svg" width="50" height="50"><g data-name="Group 886"><g data-name="Group 885"><g data-name="Group 884"><g data-name="Group 883"><g data-name="Group 882"><g data-name="Group 774"><path data-name="Rectangle 987" fill="rgba(255,255,255,0)" d="M0 0h50v50H0z"/><g data-name="003-light-bulb"><g data-name="Group 773" fill="#53ae3b"><path data-name="Path 2424" d="M21.361 34.463H7.785a.652.652 0 0 1-.648-.575 8 8 0 0 0-1.954-4.6l-.005-.007a14.574 14.574 0 1 1 18.732.053 8.027 8.027 0 0 0-1.9 4.554.648.648 0 0 1-.649.575zm-13.01-1.307h12.445a8.984 8.984 0 0 1 2.227-4.777 13.275 13.275 0 1 0-16.947-.051.645.645 0 0 1 .1.111 9.015 9.015 0 0 1 2.175 4.717z"/><path data-name="Path 2425" d="M21.361 38.406H7.785a.652.652 0 1 1 0-1.3h13.576a.652.652 0 0 1 0 1.3z"/><path data-name="Path 2426" d="M21.361 42.351H7.785a.652.652 0 0 1 0-1.3h13.576a.652.652 0 0 1 0 1.3z"/><path data-name="Path 2427" d="M17.416 46.298h-5.684a.652.652 0 1 1 0-1.3h5.684a.652.652 0 0 1 0 1.3z"/></g></g></g></g></g></g></g></g></svg>