<svg xmlns="http://www.w3.org/2000/svg" width="50" height="50" viewBox="0 0 50 50">
  <g id="Group_887" data-name="Group 887" transform="translate(-803 -375)">
    <g id="Group_775" data-name="Group 775" transform="translate(242 -329)">
      <rect id="Rectangle_988" data-name="Rectangle 988" width="50" height="50" transform="translate(561 704)" fill="rgba(255,255,255,0)"/>
      <g id="_002-jigsaw" data-name="002-jigsaw" transform="translate(561 711.143)">
        <g id="Group_770" data-name="Group 770" transform="translate(0)">
          <g id="Group_769" data-name="Group 769">
            <path id="Path_2422" data-name="Path 2422" d="M31.127,0h-23A4.478,4.478,0,0,0,3.658,4.472V27.416A4.478,4.478,0,0,0,8.13,31.888h7.027V30.61H8.13a3.2,3.2,0,0,1-3.194-3.194V16.609h4.1a.687.687,0,0,0,.585-.948,2.555,2.555,0,1,1,4.679,0,.663.663,0,0,0,.585.948h4.1v3.833a3.739,3.739,0,0,0-.639-.053,3.833,3.833,0,0,0-1.533,7.346l.511-1.17a2.555,2.555,0,0,1,1.022-4.9,2.524,2.524,0,0,1,1.022.216.639.639,0,0,0,.894-.585V16.609h3.248a3.74,3.74,0,0,0-.054.639A3.844,3.844,0,0,0,26.528,21l.256-1.251a2.564,2.564,0,0,1-2.044-2.5,2.524,2.524,0,0,1,.216-1.022.639.639,0,0,0-.585-.894h-4.1V12.083a3.74,3.74,0,0,0,.639.054,3.833,3.833,0,0,0,0-7.666,3.74,3.74,0,0,0-.639.054V1.278h10.86a3.2,3.2,0,0,1,3.194,3.194v10.86h-4.1a.639.639,0,0,0-.585.894,2.524,2.524,0,0,1,.216,1.022h1.278a3.74,3.74,0,0,0-.054-.639H34.96a.639.639,0,0,0,.639-.639V4.472A4.478,4.478,0,0,0,31.127,0ZM20.906,5.749a2.555,2.555,0,0,1,0,5.111,2.524,2.524,0,0,1-1.022-.216.639.639,0,0,0-.894.585v4.049H15.746a3.73,3.73,0,0,0,.05-.586V14.64a3.833,3.833,0,0,0-7.666,0v.053a3.73,3.73,0,0,0,.05.586H4.936V4.472A3.2,3.2,0,0,1,8.13,1.278H18.99v4.1a.639.639,0,0,0,.894.585A2.524,2.524,0,0,1,20.906,5.749Z" transform="translate(-3.658)" fill="#53ae3b"/>
          </g>
        </g>
        <g id="Group_772" data-name="Group 772" transform="translate(12.449 17.832)">
          <g id="Group_771" data-name="Group 771">
            <path id="Path_2423" data-name="Path 2423" d="M184.076,232.942l-5.371-3.7-2.063-5.511a.639.639,0,0,0-.822-.376l-.035.014-4.152,1.837a.639.639,0,0,0-.339.813c.069.179.133.314.2.455a4.871,4.871,0,0,1,.209.48,2.556,2.556,0,1,1-4.941.768.639.639,0,0,0-.864-.631l-4.438,1.672a.639.639,0,0,0-.373.822l1.593,4.256a3.6,3.6,0,0,0-.62.171,3.841,3.841,0,1,0,3.274,6.919l1.142,3.051a.639.639,0,0,0,.822.374h0l6.329-2.385a3.43,3.43,0,0,0,2.023,1.807l.4-1.214a2.154,2.154,0,0,1-1.221-1.044l1.926-.725a4.458,4.458,0,0,0,4.207,2.965v-1.278a3.214,3.214,0,0,1-3.194-3.194.639.639,0,0,0-.187-.452l-2.224-2.224a.947.947,0,0,1-.088-1.232.93.93,0,0,1,.687-.374.916.916,0,0,1,.733.274l4.46,4.46.9-.9-1.32-1.32a4.456,4.456,0,0,0-.057-2.986l-1.2-3.2,3.86,2.658a1.92,1.92,0,0,1,.817,1.57v8.252h1.278v-8.252A3.2,3.2,0,0,0,184.076,232.942Zm-4.588,2.037a3.2,3.2,0,0,1,.187,1.471l-2.074-2.073a2.22,2.22,0,1,0-3.179,3.1l.04.04,2.021,2.021-9.028,3.4-1.218-3.253a.639.639,0,0,0-.459-.4.649.649,0,0,0-.139-.015.639.639,0,0,0-.447.182,2.555,2.555,0,1,1-2.675-4.241,2.459,2.459,0,0,1,.632-.143,2.267,2.267,0,0,1,.4-.013.639.639,0,0,0,.632-.862l-1.669-4.455,3.042-1.145a3.834,3.834,0,1,0,7.351-2.081c-.059-.157-.112-.282-.163-.393l2.939-1.3Z" transform="translate(-159.563 -223.316)" fill="#53ae3b"/>
          </g>
        </g>
      </g>
    </g>
  </g>
</svg>
