<svg xmlns="http://www.w3.org/2000/svg" width="60" height="60"><g data-name="Group 907"><g data-name="Group 782"><path data-name="Rectangle 490" fill="#fff" d="M0 0h60v60H0z"/><g data-name="Group 599" fill="#53ae3b"><path data-name="Path 2128" d="M46.427 15.975l1.132-.377a18.448 18.448 0 0 0-34.717 0l1.132.377a17.289 17.289 0 0 1 32.453 0z"/><path data-name="Path 2129" d="M57.244 22.264h-5.409v-.629a21.635 21.635 0 1 0-43.27 0v.629H3.156v20.378H13.47V22.264H9.822v-.629a20.378 20.378 0 1 1 40.755 0v.629h-3.648v20.378h3.145a20.634 20.634 0 0 1-9.686 13.333l-2.767-4.654c-2.138 1.258-7.421 2.013-7.421 2.013V60a21.592 21.592 0 0 0 21.132-17.233h5.912v-20.5zm-45.031 19.12h-7.8V23.522h7.8zm43.774 0h-7.8V23.522h7.8z"/><path data-name="Path 2130" d="M27.684 27.296h4.906l.629-3.145h-4.906z"/><path data-name="Path 2131" d="M33.471 38.743h-1.384a1.52 1.52 0 0 1-1.509-1.761l1.635-7.925h-4.906l-1.509 7.17a3.707 3.707 0 0 0 3.648 4.528h3.522z"/></g></g></g></svg>