<svg xmlns="http://www.w3.org/2000/svg" width="60" height="60"><g data-name="Group 906"><g data-name="Group 781"><path data-name="Rectangle 489" fill="#fff" d="M0 0h60v60H0z"/><g data-name="Group 600" transform="translate(0 4.568)" fill="#53ae3b"><path data-name="Path 2114" d="M31.2 10.56v-2.4h-2.4v2.4a7.219 7.219 0 0 0-6 7.08v2.64h2.4v-2.64a4.754 4.754 0 0 1 3.6-4.56v8.64h2.4v-8.64a4.754 4.754 0 0 1 3.6 4.56v2.64h2.4v-2.64a7.437 7.437 0 0 0-6-7.08z"/><path data-name="Path 2115" d="M30 0a16.32 16.32 0 1 0 16.32 16.32A16.337 16.337 0 0 0 30 0zm0 31.44a15.12 15.12 0 1 1 15.12-15.12A15.211 15.211 0 0 1 30 31.44z"/><ellipse data-name="Ellipse 136" cx="5.52" cy="5.52" rx="5.52" ry="5.52" transform="translate(48.96 40.2)"/><ellipse data-name="Ellipse 137" cx="5.52" cy="5.52" rx="5.52" ry="5.52" transform="translate(32.64 40.2)"/><ellipse data-name="Ellipse 138" cx="5.52" cy="5.52" rx="5.52" ry="5.52" transform="translate(16.32 40.2)"/><ellipse data-name="Ellipse 139" cx="5.52" cy="5.52" rx="5.52" ry="5.52" transform="translate(0 40.2)"/></g></g></g></svg>