<svg xmlns="http://www.w3.org/2000/svg" width="60" height="60"><g data-name="Group 905"><g data-name="Group 780"><path data-name="Rectangle 488" fill="#fff" d="M0 0h60v60H0z"/><g data-name="Group 598" fill="#53ae3b"><path data-name="Path 2118" d="M48.471 55.714a3.929 3.929 0 1 0-3.929-3.928 3.963 3.963 0 0 0 3.929 3.928z"/><path data-name="Path 2119" d="M45.257 24.762c.238-.6.476-1.071.714-1.667 0-.119 0-.119.119-.238a7.7 7.7 0 0 0 .476-1.548c0-.119.119-.238.119-.357a5.976 5.976 0 0 0 .238-1.429.716.716 0 0 1 .119-.476 10.241 10.241 0 0 0 .119-1.9 17.2 17.2 0 0 0-34.4-.119 9.623 9.623 0 0 0 .119 1.9.716.716 0 0 0 .119.476c.119.476.119.952.238 1.429 0 .238.119.357.119.476a7.7 7.7 0 0 0 .472 1.548c0 .119 0 .119.119.238.238.6.476 1.19.714 1.667H3.828V60h52.143V24.762zM29.899 1.071a15.953 15.953 0 0 1 15.953 15.953 9.01 9.01 0 0 1-.124 1.786.716.716 0 0 1-.119.476c-.119.476-.119.833-.238 1.31 0 .119-.119.357-.119.476-.119.476-.238.833-.357 1.31 0 .119-.119.238-.119.357-.238.476-.357.952-.6 1.429a.416.416 0 0 1-.119.238l-.119.238a16.007 16.007 0 0 1-28.1 0l-.11-.244a.416.416 0 0 0-.119-.238 7.282 7.282 0 0 1-.6-1.429c0-.119-.119-.238-.119-.357-.119-.476-.238-.833-.357-1.31 0-.119-.119-.357-.119-.476-.119-.357-.119-.833-.238-1.31a.716.716 0 0 0-.119-.476 9.01 9.01 0 0 1-.119-1.786A15.953 15.953 0 0 1 29.899 1.071zM5.018 25.952h10.358a16.846 16.846 0 0 0 8.81 7.143H5.018zm49.763 32.857H5.018V40.952h49.763zM35.728 33.1a17.426 17.426 0 0 0 8.81-7.143H54.9V33.1z"/><path data-name="Path 2120" d="M24.78 18.452a4.98 4.98 0 0 1 3.929-4.881v9.167h2.38v-9.167a5.081 5.081 0 0 1 3.929 4.881v2.857h2.381v-2.857a7.537 7.537 0 0 0-6.31-7.381V8.452h-2.38v2.619a7.537 7.537 0 0 0-6.31 7.381v2.857h2.381v-2.857z"/></g></g></g></svg>