<svg xmlns="http://www.w3.org/2000/svg" width="60" height="60"><g data-name="Group 910"><g data-name="Group 788"><path data-name="Rectangle 482" fill="#fff" d="M0 0h60v60H0z"/><g data-name="Group 594" transform="translate(13.32)" fill="#53ae3b"><path data-name="Path 2123" d="M16.68 12.72a12 12 0 1 0 12 12 12.035 12.035 0 0 0-12-12zm5.52 15h-2.4V25.8a3.27 3.27 0 0 0-2.04-3v5.88h-2.4V22.8a3.27 3.27 0 0 0-2.04 3v1.92h-2.4V25.8a5.767 5.767 0 0 1 4.44-5.52v-1.56h2.4v1.56a5.664 5.664 0 0 1 4.44 5.52z"/><path data-name="Path 2124" d="M0 0v60h33.36V0zm1.2 1.2h30.96v45.36H1.2zm30.96 57.6H1.2V47.76h30.96z"/><ellipse data-name="Ellipse 144" cx="3.12" cy="3.12" rx="3.12" ry="3.12" transform="translate(13.56 50.28)"/></g></g></g></svg>