<svg xmlns="http://www.w3.org/2000/svg" width="80" height="80"><g data-name="Group 899"><g data-name="003-error" fill="#666"><path data-name="Path 2454" d="M40 0a40 40 0 1 0 40 40A40.045 40.045 0 0 0 40 0zm0 76.923A36.923 36.923 0 1 1 76.923 40 36.966 36.966 0 0 1 40 76.923z"/><path data-name="Path 2455" d="M54.934 25.066a1.537 1.537 0 0 0-2.175 0L40 37.824 27.241 25.066a1.538 1.538 0 0 0-2.175 2.175L37.824 40 25.066 52.758a1.538 1.538 0 1 0 2.175 2.175L40 42.175l12.758 12.759a1.538 1.538 0 0 0 2.175-2.175L42.175 40l12.759-12.759a1.537 1.537 0 0 0 0-2.175z"/></g></g></svg>