<svg xmlns="http://www.w3.org/2000/svg" width="100" height="65"><g data-name="Group 896"><g data-name="Group 865" fill="#53ae3b"><path data-name="Path 2449" d="M30.824 16.375a5.7 5.7 0 0 0-1.758 4.175 5.7 5.7 0 0 0 1.758 4.175 5.7 5.7 0 0 0 4.175 1.758 5.7 5.7 0 0 0 4.175-1.758 5.7 5.7 0 0 0 1.758-4.175 5.7 5.7 0 0 0-1.758-4.175 5.7 5.7 0 0 0-4.175-1.758 5.7 5.7 0 0 0-4.175 1.758zm0 24.831a5.837 5.837 0 0 0 0 8.35 5.7 5.7 0 0 0 4.175 1.761 5.7 5.7 0 0 0 4.175-1.758 5.837 5.837 0 0 0 0-8.35 5.7 5.7 0 0 0-4.175-1.758 5.7 5.7 0 0 0-4.175 1.755z"/><path data-name="Path 2448" d="M58.146 18.133a55.415 55.415 0 0 1 1.76 14.503 55.415 55.415 0 0 1-1.758 14.5 58.986 58.986 0 0 1-5.642 13.188l5.86 4.541a45.7 45.7 0 0 0 8.57-14.8 51.023 51.023 0 0 0 3.15-17.651 50.023 50.023 0 0 0-3.15-17.58 45.335 45.335 0 0 0-8.57-14.72l-5.86 4.395a63.436 63.436 0 0 1 5.64 13.405z"/></g></g></svg>