<svg xmlns="http://www.w3.org/2000/svg" width="60" height="60"><g data-name="Group 913"><g data-name="Group 606"><path data-name="Rectangle 483" fill="#fff" d="M0 0h60v60H0z"/><g data-name="Group 597" fill="#53ae3b"><path data-name="Path 2137" d="M28.38 15.047a12.624 12.624 0 1 0-12.624 12.624A12.639 12.639 0 0 0 28.38 15.047zM14.458 7.142h4.483l-.59 2.95h-4.483zm-2.242 11.209l1.415-6.728h4.483l-1.534 7.315a1.368 1.368 0 0 0 1.416 1.652h1.18l-.354 1.888h-3.186a3.34 3.34 0 0 1-3.42-4.127z"/><path data-name="Path 2138" d="M44.898 10.918v.59a32.533 32.533 0 0 1-3.3 14.394l-.236.354 5.309 5.309a39.723 39.723 0 0 1-14.984 14.984l-5.309-5.309-.354.236a32.534 32.534 0 0 1-14.394 3.3h-.59v15.22h.59c23.951 0 48.374-24.423 48.374-48.374v-.59h-15.1zm-32.682 47.9V45.96a35.788 35.788 0 0 0 13.92-3.186l5.309 5.309.354-.236a41.932 41.932 0 0 0 16.046-16.046l.236-.354-5.309-5.309a32.038 32.038 0 0 0 3.188-13.92h12.86c-.354 22.887-23.597 46.13-46.604 46.6z"/></g></g></g></svg>