<svg xmlns="http://www.w3.org/2000/svg" width="60" height="72.628"><g data-name="Group 889"><g data-name="Group 794" transform="translate(-13208 -12240)"><path data-name="Union 4" d="M13227.637 12298.162a30 30 0 1 1 20.725 0l-10.362 14.466z" fill="#00377a"/><circle data-name="Ellipse 180" cx="27" cy="27" r="27" transform="translate(13211 12243)" fill="#fff"/><g data-name="Group 793"><path data-name="Path 70" d="M13253.228 12279.235h-4.882a2.207 2.207 0 0 1-1.869-1.03l-12.701-20.33a.658.658 0 0 1 .191-.877 1.114 1.114 0 0 1 .343-.076h2.479a6.66 6.66 0 0 1 5.607 3.089l11.367 18.27a.623.623 0 0 1-.191.877.762.762 0 0 1-.343.077z" fill="#00377a"/><path data-name="Path 71" d="M13241.405 12272.598a8.566 8.566 0 0 0-6.408-3.967l-2.174-.191a1.324 1.324 0 0 1-.992-.61l-.992-1.6a.619.619 0 0 0-.839-.191.46.46 0 0 0-.191.191l-6.023 9.61-1.526 2.4a.658.658 0 0 0 .191.877.389.389 0 0 0 .343.076h4.88a2.207 2.207 0 0 0 1.869-1.03l3.7-5.836a25.831 25.831 0 0 1 4.539-.5 6.506 6.506 0 0 1 3.623.771z" fill="#549344"/><path data-name="Path 72" d="M13223.786 12275.841l-1.526 2.4a.658.658 0 0 0 .191.877.567.567 0 0 0 .343.076h4.88a2.207 2.207 0 0 0 1.869-1.03l3.7-5.836a30.736 30.736 0 0 0-9.457 3.513z" fill="#336e27"/></g></g></g></svg>