<svg xmlns="http://www.w3.org/2000/svg" width="160.463" height="30.793"><g data-name="Group 871"><path data-name="Path 61" d="M58.083 23.582h-.158a.81.81 0 0 1-.79-.79v-1.263a5.3 5.3 0 0 1-4.579 2.316 6.044 6.044 0 0 1-6.16-6.316 6 6 0 0 1 6.16-6.264 5.384 5.384 0 0 1 4.579 2.263v-1.21a.81.81 0 0 1 .79-.79h.158a.81.81 0 0 1 .79.79v10.474a.775.775 0 0 1-.789.79zm-5.474-1.474a4.362 4.362 0 0 0 4.579-4.579 4.462 4.462 0 0 0-4.579-4.527 4.3 4.3 0 0 0-4.474 4.527 4.4 4.4 0 0 0 4.473 4.579z" fill="#fff"/><path data-name="Path 62" d="M72.926 13.318l-7.948 8.58h7.369a.809.809 0 0 1 .79.79v.105a.81.81 0 0 1-.79.79h-8.9a.81.81 0 0 1-.79-.789v-.474a.676.676 0 0 1 .211-.526l7.79-8.58H63.87a.81.81 0 0 1-.79-.79v-.106a.81.81 0 0 1 .79-.79h8.422a.81.81 0 0 1 .79.79v.421a.594.594 0 0 1-.156.579z" fill="#fff"/><path data-name="Path 63" d="M76.19 17.529a5.929 5.929 0 0 1 6.106-6.264c3.421 0 5.948 2.421 5.948 6.264a.81.81 0 0 1-.79.79h-9.475a4.222 4.222 0 0 0 4.369 3.843 4.32 4.32 0 0 0 3.527-1.684.787.787 0 0 1 .79-.316l.158.053a.866.866 0 0 1 .632.948.748.748 0 0 1-.105.316 5.991 5.991 0 0 1-4.948 2.421 6.07 6.07 0 0 1-6.212-6.371zm10.264-.79a4.012 4.012 0 0 0-4.158-3.737 4.286 4.286 0 0 0-4.369 3.737z" fill="#fff"/><path data-name="Path 64" d="M99.14 12.423a.787.787 0 0 1-.895.684h-.105a5.861 5.861 0 0 0-.895-.105c-2.474 0-3.474 2.9-3.474 6.106v3.685a.81.81 0 0 1-.79.79h-.158a.81.81 0 0 1-.79-.79V12.318a.81.81 0 0 1 .79-.79h.158a.81.81 0 0 1 .79.79v1.947c.579-2.053 1.684-3 3.474-3a5.622 5.622 0 0 1 1.316.158.8.8 0 0 1 .579.842z" fill="#fff"/><path data-name="Path 65" d="M103.351 5.79a1.264 1.264 0 1 1-1.316 1.263 1.26 1.26 0 0 1 1.316-1.263zm.053 17.792h-.105a.81.81 0 0 1-.79-.79V12.318a.81.81 0 0 1 .79-.79h.105a.81.81 0 0 1 .79.79V22.79a.775.775 0 0 1-.79.79z" fill="#fff"/><path data-name="Path 66" d="M118.248 21.581a.826.826 0 0 1 0 1.158c-.053.053-.105.105-.158.105a6.616 6.616 0 0 1-3.579 1.053 6.171 6.171 0 0 1-6.317-6.317 6.127 6.127 0 0 1 6.316-6.264 7.2 7.2 0 0 1 3.579 1 .83.83 0 0 1 .263 1.105c-.053.053-.053.105-.105.158l-.105.105a.8.8 0 0 1-1 .105 5.085 5.085 0 0 0-2.631-.737 4.435 4.435 0 0 0-4.632 4.579 4.478 4.478 0 0 0 4.632 4.632 5.085 5.085 0 0 0 2.631-.737.8.8 0 0 1 1 .105z" fill="#fff"/><path data-name="Path 67" d="M133.145 23.582h-.158a.81.81 0 0 1-.79-.79v-1.263a5.3 5.3 0 0 1-4.579 2.316 6.044 6.044 0 0 1-6.159-6.317 6 6 0 0 1 6.159-6.263 5.384 5.384 0 0 1 4.579 2.263v-1.21a.81.81 0 0 1 .79-.79h.158a.81.81 0 0 1 .79.79v10.474a.746.746 0 0 1-.79.79zm-5.474-1.474a4.362 4.362 0 0 0 4.579-4.579 4.462 4.462 0 0 0-4.579-4.527 4.3 4.3 0 0 0-4.474 4.527 4.4 4.4 0 0 0 4.473 4.579z" fill="#fff"/><path data-name="Path 68" d="M145.883 12.423a.787.787 0 0 1-.895.684h-.105a5.862 5.862 0 0 0-.895-.105c-2.474 0-3.474 2.9-3.474 6.106v3.685a.81.81 0 0 1-.79.79h-.158a.81.81 0 0 1-.79-.79V12.318a.81.81 0 0 1 .79-.79h.158a.81.81 0 0 1 .79.79v1.947c.579-2.053 1.684-3 3.474-3a5.621 5.621 0 0 1 1.316.158.8.8 0 0 1 .579.842z" fill="#fff"/><path data-name="Path 69" d="M159.675 23.582h-.158a.81.81 0 0 1-.79-.79v-1.263a5.3 5.3 0 0 1-4.579 2.316 6.044 6.044 0 0 1-6.159-6.317 6 6 0 0 1 6.159-6.264 5.384 5.384 0 0 1 4.579 2.263V5.791a.81.81 0 0 1 .79-.79h.158a.81.81 0 0 1 .79.79v17.054a.765.765 0 0 1-.79.737zm-5.474-1.474a4.362 4.362 0 0 0 4.579-4.579 4.462 4.462 0 0 0-4.579-4.527 4.3 4.3 0 0 0-4.474 4.527 4.4 4.4 0 0 0 4.473 4.579z" fill="#fff"/><path data-name="Path 70" d="M42.871 30.793h-6.738a3.045 3.045 0 0 1-2.579-1.421L16.025 1.316a.908.908 0 0 1 .263-1.211A1.537 1.537 0 0 1 16.762 0h3.421a9.191 9.191 0 0 1 7.735 4.263l15.689 25.214a.86.86 0 0 1-.263 1.211 1.051 1.051 0 0 1-.474.106z" fill="#fff"/><path data-name="Path 71" d="M26.552 21.634a11.821 11.821 0 0 0-8.843-5.474l-3-.263a1.827 1.827 0 0 1-1.369-.842l-1.369-2.211a.855.855 0 0 0-1.158-.263.634.634 0 0 0-.263.263L2.234 26.109.128 29.425a.908.908 0 0 0 .263 1.211.537.537 0 0 0 .474.105h6.738a3.045 3.045 0 0 0 2.579-1.421l5.106-8.054a35.648 35.648 0 0 1 6.264-.684 8.978 8.978 0 0 1 5 1.052z" fill="#fff"/><path data-name="Path 72" d="M2.234 26.109L.128 29.425a.908.908 0 0 0 .263 1.211.782.782 0 0 0 .474.106h6.738a3.045 3.045 0 0 0 2.579-1.421l5.106-8.055a42.417 42.417 0 0 0-13.054 4.843z" fill="#ccc"/></g></svg>