<svg xmlns="http://www.w3.org/2000/svg" width="60" height="60"><g data-name="Group 914"><g data-name="Group 607"><path data-name="Rectangle 475" fill="#fff" d="M0 0h60v60H0z"/><g data-name="Group 592" transform="translate(0 3.01)" fill="#53ae3b"><path data-name="Path 2116" d="M39.348 9.448a9.45 9.45 0 1 0-18.9 0v5.98h-4.9v18.538h28.823V15.309h-5.023zm-14.113 0a4.67 4.67 0 0 1 4.664-4.664 4.6 4.6 0 0 1 4.664 4.664v5.98h-9.329zm17.82 23.322H16.624V16.5h26.431z"/><ellipse data-name="Ellipse 140" cx="5.502" cy="5.502" rx="5.502" ry="5.502" transform="translate(48.796 42.577)"/><path data-name="Path 2117" d="M38.031 42.577a5.5 5.5 0 1 0 5.5 5.5 5.565 5.565 0 0 0-5.5-5.5z"/><ellipse data-name="Ellipse 141" cx="5.502" cy="5.502" rx="5.502" ry="5.502" transform="translate(16.265 42.577)"/><ellipse data-name="Ellipse 142" cx="5.502" cy="5.502" rx="5.502" ry="5.502" transform="translate(0 42.577)"/></g></g></g></svg>