<svg xmlns="http://www.w3.org/2000/svg" width="60" height="60"><g data-name="Group 915"><g data-name="Group 591"><path data-name="Rectangle 60" fill="#fff" d="M0 0h60v60H0z"/><g data-name="Group 14" fill="#53ae3b"><path data-name="Path 76" d="M44.88 25.56V15.6a14.4 14.4 0 0 0-28.8 0v9.96H6v31.56h48.96V25.56zm-24-10.08a9.6 9.6 0 0 1 19.2 0v9.96h-19.2zM53.76 55.8H7.2V26.76h46.56z"/><path data-name="Path 77" d="M21.36 44.76a7.772 7.772 0 0 1-3.84-1.08l-1.56 3.48a12.22 12.22 0 0 0 5.64 1.32c4.56 0 6.48-2.4 6.48-4.8a4.178 4.178 0 0 0-3.36-4.08l2.64-2.64v-2.88h-10.8v3.6h5.04l-2.04 2.16v2.88h1.92c1.2 0 1.68.36 1.68.96 0 .72-.72 1.08-1.8 1.08z"/><path data-name="Path 78" d="M44.52 41.16c0-4.44-3.24-7.08-8.04-7.08h-6.96v14.16h6.96c4.8 0 8.04-2.76 8.04-7.08zm-10.2 3.36V37.8h2.04a3.091 3.091 0 0 1 3.36 3.36 3.091 3.091 0 0 1-3.36 3.36z"/></g></g></g></svg>