<svg xmlns="http://www.w3.org/2000/svg" width="60" height="60"><g data-name="Group 909"><g data-name="Group 787"><path data-name="Rectangle 481" fill="#fff" d="M0 0h60v60H0z"/><g data-name="Group 595" fill="#53ae3b"><path data-name="Path 2132" d="M35.873 50.373a3.058 3.058 0 0 0 3.08-3.08 3.136 3.136 0 0 0-3.08-3.08 3.08 3.08 0 0 0 0 6.16z"/><path data-name="Path 2133" d="M53.759 32.486a3.08 3.08 0 1 0-3.08-3.08 2.986 2.986 0 0 0 3.08 3.08z"/><path data-name="Path 2134" d="M6.378 14.008h8.765v-1.185h-9.95v9.95h1.185z"/><path data-name="Path 2135" d="M53.403 47.41h-8.765v1.185h9.95v-9.95h-1.185z"/><path data-name="Path 2136" d="M17.986 7.611v17.886H.1v28.192h41.814V35.921H59.8V7.611zm-16.7 19.071H40.73v5.093H1.285zM40.73 52.505H1.285V38.053h39.444zm17.886-17.768h-16.7v-9.24H19.171v-5.33h39.445v14.57zM19.171 13.889V8.796h39.444v5.093z"/></g></g></g></svg>