<svg xmlns="http://www.w3.org/2000/svg" width="32" height="32" viewBox="0 0 32 32">
  <g id="Group_884" data-name="Group 884" transform="translate(-1390 -5491)">
    <g id="Group_882" data-name="Group 882">
      <path id="Path_68" data-name="Path 68" d="M26.186,49.823a4.03,4.03,0,0,0-3.568,2.135,1.335,1.335,0,1,0,2.2,1.507c.587-.859.853-.994,1.214-.977,1.155.136,5.706,3.47,6.161,4.513a1.381,1.381,0,0,1-.013.974A4.607,4.607,0,0,1,29.9,60.857a4.283,4.283,0,0,1-3.431-.116A37.727,37.727,0,0,1,14.09,52.684l0,0A37.722,37.722,0,0,1,6.043,40.32a4.285,4.285,0,0,1-.116-3.432A4.605,4.605,0,0,1,8.807,34.6a1.379,1.379,0,0,1,.972-.014c1.046.457,4.381,5.007,4.515,6.15.019.374-.117.64-.975,1.227a1.335,1.335,0,1,0,1.506,2.2A4.026,4.026,0,0,0,16.961,40.6c-.116-2.133-4.264-7.78-6.247-8.509a4.036,4.036,0,0,0-2.757-.016,7.185,7.185,0,0,0-4.456,3.7,6.871,6.871,0,0,0,.07,5.551A40.377,40.377,0,0,0,12.2,54.571l.027.027a40.387,40.387,0,0,0,13.23,8.616,7.92,7.92,0,0,0,2.981.622,6.119,6.119,0,0,0,2.57-.551,7.184,7.184,0,0,0,3.705-4.458,4.037,4.037,0,0,0-.014-2.751C33.969,54.088,28.322,49.939,26.186,49.823Z" transform="translate(1358.164 5525.949) rotate(-90)" fill="#53ae3b"/>
    </g>
  </g>
</svg>
