<svg xmlns="http://www.w3.org/2000/svg" width="80" height="80" viewBox="0 0 80 80">
  <g id="Group_899" data-name="Group 899" transform="translate(-919.895 -100)">
    <g id="_003-error" data-name="003-error" transform="translate(919.895 100)">
      <path id="Path_2454" data-name="Path 2454" d="M40,0A40,40,0,1,0,80,40,40.045,40.045,0,0,0,40,0Zm0,76.923A36.923,36.923,0,1,1,76.923,40,36.966,36.966,0,0,1,40,76.923Z" fill="#666"/>
      <path id="Path_2455" data-name="Path 2455" d="M46.319,16.451a1.537,1.537,0,0,0-2.175,0L31.385,29.209,18.626,16.451a1.538,1.538,0,0,0-2.175,2.175L29.209,31.385,16.451,44.143a1.538,1.538,0,1,0,2.175,2.175L31.385,33.56,44.143,46.319a1.538,1.538,0,0,0,2.175-2.175L33.56,31.385,46.319,18.626A1.537,1.537,0,0,0,46.319,16.451Z" transform="translate(8.615 8.615)" fill="#666"/>
    </g>
  </g>
</svg>
