<svg xmlns="http://www.w3.org/2000/svg" width="147.999" height="44.846" viewBox="0 0 147.999 44.846">
  <g id="Group_898" data-name="Group 898" transform="translate(-405.001 -2303.184)">
    <g id="Group_589" data-name="Group 589" transform="translate(405 2303.184)">
      <path id="Path_605" data-name="Path 605" d="M379.848,81.784a3.094,3.094,0,0,0,1.581.457c.914,0,1.428-.476,1.428-1.162,0-.628-.362-1.009-1.295-1.352-1.124-.4-1.809-.99-1.809-1.961a1.981,1.981,0,0,1,2.209-1.866,2.862,2.862,0,0,1,1.5.343l-.247.724a2.505,2.505,0,0,0-1.295-.324c-.933,0-1.295.552-1.295,1.028,0,.647.419.952,1.371,1.333,1.162.457,1.733,1.009,1.733,2.019,0,1.047-.762,1.98-2.38,1.98a3.7,3.7,0,0,1-1.752-.438l.248-.781" transform="translate(-307.314 -61.447)" fill="#b2e1a6"/>
      <path id="Path_606" data-name="Path 606" d="M406.957,88.723a1.567,1.567,0,0,0,1.676,1.714A3.38,3.38,0,0,0,410,90.189l.152.628a4.046,4.046,0,0,1-1.638.324,2.294,2.294,0,0,1-2.418-2.476A2.414,2.414,0,0,1,408.423,86a2.344,2.344,0,0,1,1.98,2.742l-3.447-.019m2.609-.647a1.264,1.264,0,0,0-1.219-1.447,1.465,1.465,0,0,0-1.371,1.447Z" transform="translate(-328.767 -69.623)" fill="#b2e1a6"/>
      <path id="Path_607" data-name="Path 607" d="M436.666,90.856a3.426,3.426,0,0,1-1.409.286,2.344,2.344,0,0,1-2.456-2.514A2.514,2.514,0,0,1,435.447,86a2.781,2.781,0,0,1,1.238.267l-.209.686a2.156,2.156,0,0,0-1.028-.229A1.72,1.72,0,0,0,433.7,88.59a1.7,1.7,0,0,0,1.714,1.847,3.01,3.01,0,0,0,1.1-.229l.152.647" transform="translate(-350.383 -69.623)" fill="#b2e1a6"/>
      <path id="Path_608" data-name="Path 608" d="M462.551,90.18c0,.514.019.952.038,1.352h-.8l-.038-.8h-.019a1.855,1.855,0,0,1-1.638.914c-.781,0-1.695-.438-1.695-2.152V86.6h.895v2.723c0,.933.3,1.581,1.1,1.581a1.294,1.294,0,0,0,1.181-.819,1.1,1.1,0,0,0,.076-.457V86.6h.9v3.58" transform="translate(-371.108 -70.109)" fill="#b2e1a6"/>
      <path id="Path_609" data-name="Path 609" d="M487.938,87.557c0-.571,0-1.085-.038-1.542h.781l.038.971h.038a1.5,1.5,0,0,1,1.371-1.085.965.965,0,0,1,.248.038v.838a1.642,1.642,0,0,0-.324-.019,1.248,1.248,0,0,0-1.2,1.143,2.844,2.844,0,0,0-.038.419v2.628h-.895l.019-3.39" transform="translate(-394.99 -69.542)" fill="#b2e1a6"/>
      <path id="Path_610" data-name="Path 610" d="M505.552,76.862a.581.581,0,1,1,.609-.59.586.586,0,0,1-.609.59h0m.476,5.827h-.9V77.776h.9Z" transform="translate(-408.834 -61.285)" fill="#b2e1a6"/>
      <path id="Path_611" data-name="Path 611" d="M516.857,80.4v1.181h1.276v.686h-1.276v2.647c0,.609.172.952.667.952a1.733,1.733,0,0,0,.514-.057l.038.686a2.549,2.549,0,0,1-.8.114,1.333,1.333,0,0,1-.971-.381,1.883,1.883,0,0,1-.343-1.295V82.266H515.2v-.686h.762v-.914l.895-.267" transform="translate(-417.092 -65.09)" fill="#b2e1a6"/>
      <path id="Path_612" data-name="Path 612" d="M533.809,86.519l1.066,2.914a7.712,7.712,0,0,1,.324,1.009h.019c.1-.286.19-.667.3-1.028l.971-2.895h.952l-1.352,3.5a7.576,7.576,0,0,1-1.695,3.085,2.411,2.411,0,0,1-1.1.571l-.228-.762a2.048,2.048,0,0,0,.781-.438,2.921,2.921,0,0,0,.762-.99.713.713,0,0,0,.076-.209.455.455,0,0,0-.076-.229L532.8,86.5h1.009" transform="translate(-431.34 -70.028)" fill="#b2e1a6"/>
      <path id="Path_613" data-name="Path 613" d="M379.848,135.1a3.093,3.093,0,0,0,1.581.457c.914,0,1.428-.476,1.428-1.181,0-.628-.362-1.009-1.295-1.352-1.124-.4-1.809-.99-1.809-1.961a1.981,1.981,0,0,1,2.209-1.866,3.06,3.06,0,0,1,1.5.343l-.247.724a2.505,2.505,0,0,0-1.295-.324c-.933,0-1.295.552-1.295,1.028,0,.647.419.952,1.371,1.314,1.162.457,1.733,1.009,1.733,2.019,0,1.066-.762,1.98-2.38,1.98a3.482,3.482,0,0,1-1.752-.457l.248-.724" transform="translate(-307.314 -104.597)" fill="#b2e1a6"/>
      <path id="Path_614" data-name="Path 614" d="M406.057,133.8v1.181h1.276v.686h-1.276v2.647c0,.609.171.952.667.952a1.733,1.733,0,0,0,.514-.057l.038.686a2.649,2.649,0,0,1-.8.114,1.261,1.261,0,0,1-.971-.381,1.883,1.883,0,0,1-.343-1.295v-2.685H404.4v-.667h.762v-.9l.9-.286" transform="translate(-327.391 -108.321)" fill="#b2e1a6"/>
      <path id="Path_615" data-name="Path 615" d="M426.947,143.247a7.538,7.538,0,0,0,.076,1.181h-.8l-.076-.609h-.038a1.826,1.826,0,0,1-1.5.724,1.406,1.406,0,0,1-1.5-1.409c0-1.181,1.047-1.847,2.952-1.828v-.1a1.022,1.022,0,0,0-1.123-1.143,2.4,2.4,0,0,0-1.295.362l-.209-.609a3.253,3.253,0,0,1,1.638-.419c1.523,0,1.885,1.028,1.885,2.019v1.828m-.876-1.333c-.971-.019-2.095.152-2.095,1.1a.784.784,0,0,0,.838.857,1.261,1.261,0,0,0,1.219-.819.738.738,0,0,0,.038-.286Z" transform="translate(-342.53 -112.855)" fill="#b2e1a6"/>
      <path id="Path_616" data-name="Path 616" d="M450.638,140.847c0-.514,0-.914-.038-1.333h.8l.057.8h.019a1.83,1.83,0,0,1,1.619-.914c.686,0,1.733.4,1.733,2.095v2.933h-.9V141.59c0-.8-.3-1.466-1.143-1.466a1.311,1.311,0,0,0-1.2.914,1.484,1.484,0,0,0-.057.419v2.971h-.9v-3.58" transform="translate(-364.793 -112.855)" fill="#b2e1a6"/>
      <path id="Path_617" data-name="Path 617" d="M483.288,127.9v5.96c0,.438,0,.933.038,1.276h-.8l-.038-.857h-.019a1.781,1.781,0,0,1-1.657.971,2.254,2.254,0,0,1-2.114-2.495,2.354,2.354,0,0,1,2.209-2.647,1.646,1.646,0,0,1,1.485.743h.019v-2.933h.876m-.9,4.285a1.3,1.3,0,0,0-.038-.381,1.319,1.319,0,0,0-1.295-1.028c-.933,0-1.485.819-1.485,1.9,0,1.009.5,1.828,1.466,1.828a1.366,1.366,0,0,0,1.314-1.066,1.3,1.3,0,0,0,.038-.381Z" transform="translate(-387.541 -103.544)" fill="#b2e1a6"/>
      <path id="Path_618" data-name="Path 618" d="M512.447,143.247a7.523,7.523,0,0,0,.076,1.181h-.8l-.076-.609h-.038a1.826,1.826,0,0,1-1.5.724,1.406,1.406,0,0,1-1.5-1.409c0-1.181,1.066-1.847,2.952-1.828v-.1a1.022,1.022,0,0,0-1.123-1.143,2.4,2.4,0,0,0-1.295.362l-.209-.609a3.232,3.232,0,0,1,1.619-.419c1.523,0,1.885,1.028,1.885,2.019v1.828m-.857-1.333c-.971-.019-2.095.152-2.095,1.1a.784.784,0,0,0,.838.857,1.261,1.261,0,0,0,1.219-.819,1.474,1.474,0,0,0,.038-.286Z" transform="translate(-411.749 -112.855)" fill="#b2e1a6"/>
      <path id="Path_619" data-name="Path 619" d="M536.238,140.957c0-.571-.019-1.085-.038-1.542h.781l.038.971h.038a1.5,1.5,0,0,1,1.371-1.085,1.086,1.086,0,0,1,.248.019v.838a1.64,1.64,0,0,0-.324-.019,1.248,1.248,0,0,0-1.2,1.143,2.869,2.869,0,0,0-.038.419v2.628h-.9l.019-3.371" transform="translate(-434.093 -112.774)" fill="#b2e1a6"/>
      <path id="Path_620" data-name="Path 620" d="M556.207,127.9v5.96c0,.438.019.933.038,1.276h-.8l-.038-.857h-.019a1.811,1.811,0,0,1-1.676.971,2.254,2.254,0,0,1-2.114-2.495,2.353,2.353,0,0,1,2.209-2.647,1.646,1.646,0,0,1,1.485.743h.019v-2.933h.9m-.9,4.285a1.3,1.3,0,0,0-.038-.381,1.335,1.335,0,0,0-1.295-1.028c-.933,0-1.466.819-1.466,1.9,0,1.009.5,1.828,1.447,1.828a1.351,1.351,0,0,0,1.314-1.066,1.3,1.3,0,0,0,.038-.381Z" transform="translate(-446.559 -103.544)" fill="#b2e1a6"/>
      <path id="Path_621" data-name="Path 621" d="M582.11,143.532a2.4,2.4,0,0,0,1.181.343c.647,0,.952-.324.952-.724,0-.419-.248-.666-.9-.914-.895-.324-1.314-.8-1.314-1.39a1.519,1.519,0,0,1,1.695-1.447,2.313,2.313,0,0,1,1.2.3l-.209.647a1.993,1.993,0,0,0-1.009-.286c-.533,0-.819.3-.819.666,0,.419.286.609.933.838.838.324,1.295.743,1.295,1.485,0,.876-.686,1.485-1.828,1.485a2.778,2.778,0,0,1-1.39-.343l.209-.667" transform="translate(-471.09 -112.855)" fill="#b2e1a6"/>
      <path id="Path_622" data-name="Path 622" d="M619.28,135.96a4.23,4.23,0,0,1-1.809.324A3.191,3.191,0,0,1,614.1,132.8a3.4,3.4,0,0,1,3.58-3.6,3.79,3.79,0,0,1,1.619.3l-.229.724a3,3,0,0,0-1.371-.286,2.541,2.541,0,0,0-2.666,2.837,2.489,2.489,0,0,0,2.628,2.761,3.652,3.652,0,0,0,1.466-.286l.152.7" transform="translate(-497.159 -104.597)" fill="#b2e1a6"/>
      <path id="Path_623" data-name="Path 623" d="M646.861,144.541a2.338,2.338,0,0,1-2.361-2.533,2.4,2.4,0,0,1,2.438-2.609,2.322,2.322,0,0,1,2.361,2.514,2.408,2.408,0,0,1-2.437,2.628h0m.019-.666c.857,0,1.5-.8,1.5-1.923,0-.838-.419-1.885-1.485-1.885-1.047,0-1.5.971-1.5,1.9,0,1.085.609,1.9,1.485,1.9Z" transform="translate(-521.77 -112.855)" fill="#b2e1a6"/>
      <path id="Path_624" data-name="Path 624" d="M679.651,143.58c0,.514,0,.952.038,1.333h-.781l-.057-.8h-.019a1.855,1.855,0,0,1-1.638.914c-.762,0-1.695-.438-1.695-2.152V140h.9v2.723c0,.933.286,1.581,1.1,1.581a1.316,1.316,0,0,0,1.181-.819,1.152,1.152,0,0,0,.076-.457V140h.9v3.58" transform="translate(-546.866 -113.34)" fill="#b2e1a6"/>
      <path id="Path_625" data-name="Path 625" d="M704.938,140.847c0-.514,0-.914-.038-1.333h.781l.057.8h.019a1.83,1.83,0,0,1,1.619-.914c.686,0,1.733.4,1.733,2.095v2.933h-.9V141.59c0-.8-.3-1.466-1.142-1.466a1.311,1.311,0,0,0-1.2.914,1.485,1.485,0,0,0-.057.419v2.971h-.9v-3.58" transform="translate(-570.668 -112.855)" fill="#b2e1a6"/>
      <path id="Path_626" data-name="Path 626" d="M736.666,144.256a3.347,3.347,0,0,1-1.409.286,2.344,2.344,0,0,1-2.456-2.514,2.514,2.514,0,0,1,2.647-2.628,2.848,2.848,0,0,1,1.238.267l-.209.686a2.155,2.155,0,0,0-1.028-.229,1.709,1.709,0,0,0-1.752,1.866,1.688,1.688,0,0,0,1.714,1.847,2.591,2.591,0,0,0,1.1-.229l.152.647" transform="translate(-593.255 -112.855)" fill="#b2e1a6"/>
      <path id="Path_627" data-name="Path 627" d="M758.552,130.343a.571.571,0,1,1,.59-.571.566.566,0,0,1-.59.571h0m.457,5.827h-.895v-4.913h.895Z" transform="translate(-613.656 -104.597)" fill="#b2e1a6"/>
      <rect id="Rectangle_137" data-name="Rectangle 137" width="0.895" height="7.217" transform="translate(146.838 24.356)" fill="#b2e1a6"/>
      <path id="Subtraction_1" data-name="Subtraction 1" d="M-392.652-8222.338-408-8264.08l55.262-3.1,12.721,28.3-52.635,16.548h0Zm25.918-31.344a16.188,16.188,0,0,0-4.743.666,11.409,11.409,0,0,0-3.712,1.886,8.449,8.449,0,0,0-2.419,2.933,8.386,8.386,0,0,0-.857,3.788,8.991,8.991,0,0,0,.8,3.828,7.924,7.924,0,0,0,2.342,2.915,11.354,11.354,0,0,0,3.772,1.847,18.024,18.024,0,0,0,5.065.647,18.425,18.425,0,0,0,3.579-.306,11.618,11.618,0,0,0,1.992-.492l.255-.08-.019-4.494a17.453,17.453,0,0,1-2.513.764,11.339,11.339,0,0,1-2.4.266,7.563,7.563,0,0,1-2.228-.3,5.183,5.183,0,0,1-1.807-.913,4.667,4.667,0,0,1-1.239-1.544,4.827,4.827,0,0,1-.456-2.151,4.556,4.556,0,0,1,1.446-3.638,5.516,5.516,0,0,1,3.77-1.273,9.417,9.417,0,0,1,2.706.38,10.648,10.648,0,0,1,2.284.952l.019-4.817-.128-.047-.2-.077a8.391,8.391,0,0,0-1.647-.468A17.958,17.958,0,0,0-366.734-8253.682Zm-30.717.3v17.939h6.836v-5.37h1.066a18.235,18.235,0,0,0,3.979-.4,10.154,10.154,0,0,0,3.067-1.218,5.734,5.734,0,0,0,1.981-2.019,5.426,5.426,0,0,0,.7-2.8,5.005,5.005,0,0,0-2.552-4.608,13.977,13.977,0,0,0-7.065-1.525Zm39.57,0v17.92H-351v-17.92Zm3.448-9.521a4.415,4.415,0,0,0-2.971,1.028,3.55,3.55,0,0,0-1.2,2.874,3.549,3.549,0,0,0,1.2,2.838,4.417,4.417,0,0,0,2.971,1.029,4.425,4.425,0,0,0,2.971-1.029,3.555,3.555,0,0,0,1.2-2.838,3.6,3.6,0,0,0-1.2-2.874A4.423,4.423,0,0,0-354.432-8262.9Zm-35.477,18.186h-.761v-4.8h.838c2.287,0,3.446.788,3.446,2.342a2.032,2.032,0,0,1-.915,1.867A4.7,4.7,0,0,1-389.909-8244.714Z" transform="translate(408 8267.184)" fill="#b2e1a6"/>
      <path id="Path_632" data-name="Path 632" d="M747.381,77.171H746.6V76.6h2.266v.571h-.819v2.38h-.666v-2.38" transform="translate(-604.427 -62.013)" fill="#b2e1a6"/>
      <path id="Path_633" data-name="Path 633" d="M762.633,78.347c-.019-.362-.019-.781-.019-1.219h0c-.1.381-.228.8-.324,1.143l-.362,1.162h-.514l-.324-1.143c-.1-.343-.19-.762-.267-1.162h0c-.019.4-.038.857-.057,1.219l-.057,1.124H760.1l.19-2.952h.9l.286.99a10.423,10.423,0,0,1,.248,1.047h.019a11.031,11.031,0,0,1,.286-1.066l.3-.99h.876l.152,2.952h-.647l-.076-1.1" transform="translate(-615.356 -61.932)" fill="#b2e1a6"/>
    </g>
  </g>
</svg>
