<svg xmlns="http://www.w3.org/2000/svg" width="50.002" height="50" viewBox="0 0 50.002 50">
  <g id="Group_888" data-name="Group 888" transform="translate(-1146.826 -375)">
    <g id="Group_776" data-name="Group 776" transform="translate(475 -329)">
      <rect id="Rectangle_989" data-name="Rectangle 989" width="49.876" height="50" transform="translate(671.95 704)" fill="rgba(255,255,255,0)"/>
      <g id="_001-rocket" data-name="001-rocket" transform="translate(671.826 707.571)">
        <g id="Group_734" data-name="Group 734" transform="translate(13.505 16.243)">
          <g id="Group_733" data-name="Group 733">
            <path id="Path_2404" data-name="Path 2404" d="M190.957,196.547l-1.752-1.075.5-1.995a.634.634,0,0,0-.917-.71l-1.807.979-1.479-1.427a.634.634,0,0,0-1.074.439l-.056,2.055-1.975.568a.634.634,0,0,0-.157,1.15l1.752,1.076-.5,1.995a.634.634,0,0,0,.917.71l1.807-.979,1.479,1.427a.634.634,0,0,0,1.074-.439l.056-2.055,1.975-.568a.634.634,0,0,0,.157-1.15Zm-2.929.627a.634.634,0,0,0-.459.592l-.029,1.081-.778-.751a.634.634,0,0,0-.742-.1l-.951.515.261-1.05a.634.634,0,0,0-.284-.693l-.922-.566,1.039-.3a.634.634,0,0,0,.459-.592l.029-1.081.779.751a.634.634,0,0,0,.742.1l.951-.515-.261,1.05a.634.634,0,0,0,.284.693l.922.566Z" transform="translate(-181.934 -192.142)" fill="#53ae3b"/>
          </g>
        </g>
        <g id="Group_736" data-name="Group 736" transform="translate(5.314 15.686)">
          <g id="Group_735" data-name="Group 735" transform="translate(0)">
            <path id="Path_2405" data-name="Path 2405" d="M92.09,187.707l-6.209-2.12a.634.634,0,1,0-.41,1.2l6.209,2.12a.634.634,0,1,0,.41-1.2Z" transform="translate(-85.042 -185.552)" fill="#53ae3b"/>
          </g>
        </g>
        <g id="Group_738" data-name="Group 738" transform="translate(13.436 5.377)">
          <g id="Group_737" data-name="Group 737">
            <path id="Path_2406" data-name="Path 2406" d="M184.692,72.106l-2.342-8.045a.634.634,0,1,0-1.218.354l2.341,8.045a.634.634,0,0,0,1.218-.354Z" transform="translate(-181.107 -63.604)" fill="#53ae3b"/>
          </g>
        </g>
        <g id="Group_740" data-name="Group 740" transform="translate(21.683 7.684)">
          <g id="Group_739" data-name="Group 739">
            <path id="Path_2407" data-name="Path 2407" d="M285.089,91.022a.634.634,0,0,0-.89.113L278.806,98.1a.634.634,0,1,0,1,.776l5.394-6.965A.634.634,0,0,0,285.089,91.022Z" transform="translate(-278.673 -90.889)" fill="#53ae3b"/>
          </g>
        </g>
        <g id="Group_742" data-name="Group 742" transform="translate(18.674 7.579)">
          <g id="Group_741" data-name="Group 741">
            <path id="Path_2408" data-name="Path 2408" d="M245.469,89.663a.634.634,0,0,0-.757.481l-1.628,7.31a.634.634,0,1,0,1.238.276l1.628-7.31A.634.634,0,0,0,245.469,89.663Z" transform="translate(-243.069 -89.648)" fill="#53ae3b"/>
          </g>
        </g>
        <g id="Group_744" data-name="Group 744" transform="translate(10.206 11.76)">
          <g id="Group_743" data-name="Group 743" transform="translate(0)">
            <path id="Path_2409" data-name="Path 2409" d="M147.222,142.933l-3.206-3.608a.634.634,0,1,0-.948.842l3.206,3.608a.634.634,0,0,0,.948-.842Z" transform="translate(-142.908 -139.113)" fill="#53ae3b"/>
          </g>
        </g>
        <g id="Group_746" data-name="Group 746" transform="translate(7.491 20.512)">
          <g id="Group_745" data-name="Group 745" transform="translate(0)">
            <path id="Path_2410" data-name="Path 2410" d="M115.707,243.218a.634.634,0,0,0-.682-.582l-3.652.289a.634.634,0,0,0,.049,1.266l.051,0,3.652-.289A.634.634,0,0,0,115.707,243.218Z" transform="translate(-110.789 -242.634)" fill="#53ae3b"/>
          </g>
        </g>
        <g id="Group_748" data-name="Group 748" transform="translate(10.91 0)">
          <g id="Group_747" data-name="Group 747">
            <path id="Path_2411" data-name="Path 2411" d="M155.2,1.738a1.989,1.989,0,1,0-3.192,1.824,1.974,1.974,0,0,0,1.214.417,2.008,2.008,0,0,0,.255-.016A1.99,1.99,0,0,0,155.2,1.738Zm-1.4.693a.721.721,0,1,1,.145-.533A.716.716,0,0,1,153.8,2.431Z" transform="translate(-151.236 0)" fill="#53ae3b"/>
          </g>
        </g>
        <g id="Group_750" data-name="Group 750" transform="translate(0 12.979)">
          <g id="Group_749" data-name="Group 749">
            <path id="Path_2412" data-name="Path 2412" d="M26.14,155.265a1.989,1.989,0,1,0-1.978,2.241,2.041,2.041,0,0,0,.255-.016,1.989,1.989,0,0,0,1.723-2.224Zm-1.4.692a.721.721,0,1,1-.661-1.157.74.74,0,0,1,.092-.006.721.721,0,0,1,.569,1.163Z" transform="translate(-22.177 -153.526)" fill="#53ae3b"/>
          </g>
        </g>
        <g id="Group_752" data-name="Group 752" transform="translate(28.212 3.113)">
          <g id="Group_751" data-name="Group 751" transform="translate(0)">
            <path id="Path_2413" data-name="Path 2413" d="M359.1,37.241a1.989,1.989,0,1,0,.355,2.791A1.976,1.976,0,0,0,359.1,37.241Zm-.648,2.015a.721.721,0,1,1-.129-1.012A.722.722,0,0,1,358.455,39.256Z" transform="translate(-355.895 -36.824)" fill="#53ae3b"/>
          </g>
        </g>
        <g id="Group_754" data-name="Group 754" transform="translate(21.168 25.275)">
          <g id="Group_753" data-name="Group 753">
            <path id="Path_2414" data-name="Path 2414" d="M277.344,304.753l-3.606-5.481a.634.634,0,0,0-1.059.7l3.606,5.481a.634.634,0,0,0,1.059-.7Z" transform="translate(-272.574 -298.986)" fill="#53ae3b"/>
          </g>
        </g>
        <g id="Group_756" data-name="Group 756" transform="translate(24.349 20.06)">
          <g id="Group_755" data-name="Group 755">
            <path id="Path_2415" data-name="Path 2415" d="M319.229,237.551l-8.375-.254a.634.634,0,0,0-.038,1.268l8.375.254h.02a.634.634,0,0,0,.019-1.268Z" transform="translate(-310.2 -237.296)" fill="#53ae3b"/>
          </g>
        </g>
        <g id="Group_758" data-name="Group 758" transform="translate(22.204 14.218)">
          <g id="Group_757" data-name="Group 757">
            <path id="Path_2416" data-name="Path 2416" d="M292.7,168.527a.634.634,0,0,0-.853-.276l-6.67,3.405a.634.634,0,1,0,.577,1.129l6.67-3.405A.634.634,0,0,0,292.7,168.527Z" transform="translate(-284.828 -168.182)" fill="#53ae3b"/>
          </g>
        </g>
        <g id="Group_760" data-name="Group 760" transform="translate(23.056 22.837)">
          <g id="Group_759" data-name="Group 759">
            <path id="Path_2417" data-name="Path 2417" d="M300.13,272.41l-4.3-2.2a.634.634,0,0,0-.578,1.128l4.3,2.2a.634.634,0,1,0,.578-1.128Z" transform="translate(-294.912 -270.139)" fill="#53ae3b"/>
          </g>
        </g>
        <g id="Group_762" data-name="Group 762" transform="translate(18.644 26.321)">
          <g id="Group_761" data-name="Group 761" transform="translate(0)">
            <path id="Path_2418" data-name="Path 2418" d="M244.611,315.482l-.634-3.608a.634.634,0,1,0-1.249.22l.634,3.608a.634.634,0,1,0,1.249-.22Z" transform="translate(-242.718 -311.349)" fill="#53ae3b"/>
          </g>
        </g>
        <g id="Group_764" data-name="Group 764" transform="translate(35.555 19.086)">
          <g id="Group_763" data-name="Group 763" transform="translate(0)">
            <path id="Path_2419" data-name="Path 2419" d="M445.974,226.189a1.989,1.989,0,1,0-1.222,3.563,2.026,2.026,0,0,0,.255-.016,1.989,1.989,0,0,0,.967-3.546Zm-.648,2.015a.721.721,0,1,1-.661-1.157.726.726,0,0,1,.092-.006.721.721,0,0,1,.569,1.163Z" transform="translate(-442.766 -225.772)" fill="#53ae3b"/>
          </g>
        </g>
        <g id="Group_766" data-name="Group 766" transform="translate(25.719 32.897)">
          <g id="Group_765" data-name="Group 765">
            <path id="Path_2420" data-name="Path 2420" d="M329.614,389.556a1.989,1.989,0,1,0-1.222,3.563,2.017,2.017,0,0,0,.255-.016,1.989,1.989,0,0,0,.967-3.546Zm-.648,2.015a.721.721,0,1,1-.129-1.012A.717.717,0,0,1,328.966,391.57Z" transform="translate(-326.407 -389.14)" fill="#53ae3b"/>
          </g>
        </g>
        <g id="Group_768" data-name="Group 768" transform="translate(1.672 25.073)">
          <g id="Group_767" data-name="Group 767">
            <path id="Path_2421" data-name="Path 2421" d="M54.133,296.77a.634.634,0,0,0-.9.014c-.315.325-7.759,8.076-11.238,17.156a.634.634,0,1,0,1.184.454c3.385-8.833,10.89-16.65,10.965-16.728A.634.634,0,0,0,54.133,296.77Z" transform="translate(-41.955 -296.592)" fill="#53ae3b"/>
          </g>
        </g>
      </g>
    </g>
  </g>
</svg>
