<svg xmlns="http://www.w3.org/2000/svg" width="60" height="72.628" viewBox="0 0 60 72.628">
  <g id="Group_889" data-name="Group 889" transform="translate(-930 -448)">
    <g id="Group_794" data-name="Group 794" transform="translate(-12278 -11792)">
      <path id="Union_4" data-name="Union 4" d="M19.637,58.162a30,30,0,1,1,20.725,0L30,72.628Z" transform="translate(13208 12240)" fill="#00377a"/>
      <circle id="Ellipse_180" data-name="Ellipse 180" cx="27" cy="27" r="27" transform="translate(13211 12243)" fill="#fff"/>
      <g id="Group_793" data-name="Group 793" transform="translate(-63.372 27.519)">
        <path id="Path_70" data-name="Path 70" d="M49.724,22.313H44.842a2.207,2.207,0,0,1-1.869-1.03L30.272.953a.658.658,0,0,1,.191-.877A1.114,1.114,0,0,1,30.806,0h2.479a6.66,6.66,0,0,1,5.607,3.089l11.367,18.27a.623.623,0,0,1-.191.877.762.762,0,0,1-.343.077Z" transform="translate(13266.876 12229.403)" fill="#00377a"/>
        <path id="Path_71" data-name="Path 71" d="M19.219,30.307a8.566,8.566,0,0,0-6.408-3.967l-2.174-.191a1.324,1.324,0,0,1-.992-.61l-.992-1.6a.619.619,0,0,0-.839-.191.46.46,0,0,0-.191.191L1.6,33.549h0l-1.526,2.4a.658.658,0,0,0,.191.877.389.389,0,0,0,.343.076H5.488a2.207,2.207,0,0,0,1.869-1.03l3.7-5.836a25.831,25.831,0,0,1,4.539-.5A6.506,6.506,0,0,1,19.219,30.307Z" transform="translate(13285.558 12214.772)" fill="#549344"/>
        <path id="Path_72" data-name="Path 72" d="M1.6,43.909l-1.526,2.4a.658.658,0,0,0,.191.877.567.567,0,0,0,.343.076H5.488a2.207,2.207,0,0,0,1.869-1.03l3.7-5.836A30.736,30.736,0,0,0,1.6,43.909Z" transform="translate(13285.558 12204.413)" fill="#336e27"/>
      </g>
    </g>
  </g>
</svg>
