<svg xmlns="http://www.w3.org/2000/svg" width="160.463" height="30.793" viewBox="0 0 160.463 30.793">
  <g id="Group_871" data-name="Group 871" transform="translate(-404.537 -50.403)">
    <g id="logo_H_fullcolor_white" transform="translate(404.558 50.403)">
      <path id="Path_61" data-name="Path 61" d="M99.787,33.717h-.158a.81.81,0,0,1-.79-.79V31.664A5.3,5.3,0,0,1,94.26,33.98,6.044,6.044,0,0,1,88.1,27.664,6,6,0,0,1,94.26,21.4a5.384,5.384,0,0,1,4.579,2.263V22.453a.81.81,0,0,1,.79-.79h.158a.81.81,0,0,1,.79.79V32.927a.775.775,0,0,1-.789.79Zm-5.474-1.474a4.362,4.362,0,0,0,4.579-4.579,4.462,4.462,0,0,0-4.579-4.527,4.3,4.3,0,0,0-4.474,4.527A4.4,4.4,0,0,0,94.312,32.243Z" transform="translate(-41.725 -10.135)" fill="#fff"/>
      <path id="Path_62" data-name="Path 62" d="M129.256,23.69l-7.948,8.58h7.369a.809.809,0,0,1,.79.79v.105a.81.81,0,0,1-.79.79h-8.9a.81.81,0,0,1-.79-.789v-.474a.676.676,0,0,1,.211-.526l7.79-8.58H120.2a.81.81,0,0,1-.79-.79h0V22.69a.81.81,0,0,1,.79-.79h8.422a.81.81,0,0,1,.79.79v.421A.594.594,0,0,1,129.256,23.69Z" transform="translate(-56.351 -10.372)" fill="#fff"/>
      <path id="Path_63" data-name="Path 63" d="M144.7,27.664a5.929,5.929,0,0,1,6.106-6.264c3.421,0,5.948,2.421,5.948,6.264h0a.81.81,0,0,1-.79.79h-9.475a4.222,4.222,0,0,0,4.369,3.843,4.32,4.32,0,0,0,3.527-1.684.787.787,0,0,1,.79-.316l.158.053a.866.866,0,0,1,.632.948.748.748,0,0,1-.105.316,5.991,5.991,0,0,1-4.948,2.421A6.07,6.07,0,0,1,144.7,27.664Zm10.264-.79a4.012,4.012,0,0,0-4.158-3.737,4.286,4.286,0,0,0-4.369,3.737Z" transform="translate(-68.531 -10.135)" fill="#fff"/>
      <path id="Path_64" data-name="Path 64" d="M181.907,22.558a.787.787,0,0,1-.895.684h-.105a5.861,5.861,0,0,0-.895-.105c-2.474,0-3.474,2.9-3.474,6.106v3.685a.81.81,0,0,1-.79.79h-.158a.81.81,0,0,1-.79-.79h0V22.453a.81.81,0,0,1,.79-.79h.158a.81.81,0,0,1,.79.79V24.4c.579-2.053,1.684-3,3.474-3a5.622,5.622,0,0,1,1.316.158.8.8,0,0,1,.579.842Z" transform="translate(-82.788 -10.135)" fill="#fff"/>
      <path id="Path_65" data-name="Path 65" d="M195.116,11a1.264,1.264,0,1,1-1.316,1.263A1.26,1.26,0,0,1,195.116,11Zm.053,17.792h-.105a.81.81,0,0,1-.79-.79V17.528a.81.81,0,0,1,.79-.79h.105a.81.81,0,0,1,.79.79V28a.775.775,0,0,1-.79.79Z" transform="translate(-91.786 -5.21)" fill="#fff"/>
      <path id="Path_66" data-name="Path 66" d="M215.555,31.764a.826.826,0,0,1,0,1.158c-.053.053-.105.105-.158.105a6.616,6.616,0,0,1-3.579,1.053,6.171,6.171,0,0,1-6.317-6.317,6.127,6.127,0,0,1,6.316-6.264,7.2,7.2,0,0,1,3.579,1,.83.83,0,0,1,.263,1.105c-.053.053-.053.105-.105.158l-.105.105a.8.8,0,0,1-1,.105,5.085,5.085,0,0,0-2.631-.737,4.435,4.435,0,0,0-4.632,4.579,4.478,4.478,0,0,0,4.632,4.632,5.085,5.085,0,0,0,2.631-.737.8.8,0,0,1,1,.105Z" transform="translate(-97.328 -10.183)" fill="#fff"/>
      <path id="Path_67" data-name="Path 67" d="M242.387,33.717h-.158a.81.81,0,0,1-.79-.79h0V31.664a5.3,5.3,0,0,1-4.579,2.316,6.044,6.044,0,0,1-6.159-6.317A6,6,0,0,1,236.86,21.4a5.384,5.384,0,0,1,4.579,2.263V22.453a.81.81,0,0,1,.79-.79h.158a.81.81,0,0,1,.79.79V32.927a.746.746,0,0,1-.79.79Zm-5.474-1.474a4.362,4.362,0,0,0,4.579-4.579,4.462,4.462,0,0,0-4.579-4.527,4.3,4.3,0,0,0-4.474,4.527A4.4,4.4,0,0,0,236.912,32.243Z" transform="translate(-109.263 -10.135)" fill="#fff"/>
      <path id="Path_68" data-name="Path 68" d="M270.707,22.558a.787.787,0,0,1-.895.684h-.105a5.862,5.862,0,0,0-.895-.105c-2.474,0-3.474,2.9-3.474,6.106v3.685a.81.81,0,0,1-.79.79h-.158a.81.81,0,0,1-.79-.79h0V22.453a.81.81,0,0,1,.79-.79h.158a.81.81,0,0,1,.79.79h0V24.4c.579-2.053,1.684-3,3.474-3a5.621,5.621,0,0,1,1.316.158.8.8,0,0,1,.579.842Z" transform="translate(-124.845 -10.135)" fill="#fff"/>
      <path id="Path_69" data-name="Path 69" d="M292.787,28.081h-.158a.81.81,0,0,1-.79-.79V26.028a5.3,5.3,0,0,1-4.579,2.316,6.044,6.044,0,0,1-6.159-6.317,6,6,0,0,1,6.159-6.264,5.384,5.384,0,0,1,4.579,2.263V10.29a.81.81,0,0,1,.79-.79h.158a.81.81,0,0,1,.79.79h0V27.344A.765.765,0,0,1,292.787,28.081Zm-5.474-1.474a4.362,4.362,0,0,0,4.579-4.579,4.462,4.462,0,0,0-4.579-4.527,4.3,4.3,0,0,0-4.474,4.527A4.4,4.4,0,0,0,287.312,26.607Z" transform="translate(-133.133 -4.499)" fill="#fff"/>
      <path id="Path_70" data-name="Path 70" d="M57.153,30.793H50.415a3.045,3.045,0,0,1-2.579-1.421L30.307,1.316A.908.908,0,0,1,30.57.105,1.537,1.537,0,0,1,31.044,0h3.421A9.191,9.191,0,0,1,42.2,4.263L57.889,29.477a.86.86,0,0,1-.263,1.211,1.051,1.051,0,0,1-.474.106Z" transform="translate(-14.303)" fill="#fff"/>
      <path id="Path_71" data-name="Path 71" d="M26.531,32.836a11.821,11.821,0,0,0-8.843-5.474l-3-.263a1.827,1.827,0,0,1-1.369-.842l-1.369-2.211a.855.855,0,0,0-1.158-.263.634.634,0,0,0-.263.263L2.213,37.311h0L.107,40.627A.908.908,0,0,0,.37,41.838a.537.537,0,0,0,.474.105H7.582a3.045,3.045,0,0,0,2.579-1.421l5.106-8.054a35.648,35.648,0,0,1,6.264-.684A8.978,8.978,0,0,1,26.531,32.836Z" transform="translate(0 -11.202)" fill="#fff"/>
      <path id="Path_72" data-name="Path 72" d="M2.213,45.243.107,48.559A.908.908,0,0,0,.37,49.77a.782.782,0,0,0,.474.106H7.582a3.045,3.045,0,0,0,2.579-1.421L15.267,40.4A42.417,42.417,0,0,0,2.213,45.243Z" transform="translate(0 -19.134)" fill="#ccc"/>
    </g>
  </g>
</svg>
