<svg xmlns="http://www.w3.org/2000/svg" width="160" height="30.729" viewBox="0 0 160 30.729">
  <g id="Group_882" data-name="Group 882" transform="translate(-408 -5494)">
    <g id="logo_H_fullcolor_normal" transform="translate(407.971 5494.035)">
      <g id="Group_1" data-name="Group 1" transform="translate(46.292 5.006)">
        <path id="Path_13" data-name="Path 13" d="M99.752,340.334h-.158a.807.807,0,0,1-.787-.787v-1.26a5.286,5.286,0,0,1-4.566,2.309,6.3,6.3,0,0,1,.053-12.6,5.369,5.369,0,0,1,4.566,2.257V329.05a.807.807,0,0,1,.787-.787H99.8a.807.807,0,0,1,.787.787v10.5A.9.9,0,0,1,99.752,340.334Zm-5.459-1.47A4.349,4.349,0,0,0,98.86,334.3a4.449,4.449,0,0,0-4.566-4.514,4.284,4.284,0,0,0-4.461,4.514,4.418,4.418,0,0,0,4.461,4.566Z" transform="translate(-88.1 -321.807)" fill="#00377a"/>
        <path id="Path_14" data-name="Path 14" d="M129.227,330.289l-7.925,8.555h7.348a.807.807,0,0,1,.787.787v.1a.807.807,0,0,1-.787.787h-8.87a.807.807,0,0,1-.787-.787v-.472a.674.674,0,0,1,.21-.525l7.768-8.555H120.2a.807.807,0,0,1-.787-.787h0v-.1a.807.807,0,0,1,.787-.787h8.4a.807.807,0,0,1,.787.787v.42A.559.559,0,0,1,129.227,330.289Z" transform="translate(-102.774 -322.049)" fill="#00377a"/>
        <path id="Path_15" data-name="Path 15" d="M144.7,334.246A5.912,5.912,0,0,1,150.789,328c3.412,0,5.931,2.414,5.931,6.246h0a.807.807,0,0,1-.787.787h-9.448a4.209,4.209,0,0,0,4.356,3.832,4.307,4.307,0,0,0,3.517-1.68.785.785,0,0,1,.787-.315l.158.053a.863.863,0,0,1,.63.945.746.746,0,0,1-.105.315,6.212,6.212,0,0,1-11.127-3.936Zm10.235-.787a4,4,0,0,0-4.146-3.727,4.274,4.274,0,0,0-4.356,3.727Z" transform="translate(-114.993 -321.807)" fill="#00377a"/>
        <path id="Path_16" data-name="Path 16" d="M181.89,329.207a.785.785,0,0,1-.892.682h-.1a5.842,5.842,0,0,0-.892-.1c-2.467,0-3.464,2.887-3.464,6.089v3.674a.807.807,0,0,1-.787.787h-.157a.807.807,0,0,1-.787-.787h0v-10.5a.807.807,0,0,1,.787-.787h.157a.807.807,0,0,1,.787.787v1.942c.577-2.047,1.68-2.992,3.464-2.992a5.605,5.605,0,0,1,1.312.158.792.792,0,0,1,.577.84Z" transform="translate(-129.299 -321.807)" fill="#00377a"/>
        <path id="Path_17" data-name="Path 17" d="M195.112,317.6a1.261,1.261,0,1,1-1.312,1.26A1.256,1.256,0,0,1,195.112,317.6Zm.052,17.793h-.1a.807.807,0,0,1-.787-.787v-10.5a.807.807,0,0,1,.787-.787h.1a.807.807,0,0,1,.787.787v10.5a.807.807,0,0,1-.787.787Z" transform="translate(-138.322 -316.865)" fill="#00377a"/>
        <path id="Path_18" data-name="Path 18" d="M215.526,338.335a.824.824,0,0,1,0,1.155c-.053.053-.1.1-.157.1a6.6,6.6,0,0,1-3.569,1.05,6.272,6.272,0,1,1,0-12.544,7.175,7.175,0,0,1,3.569,1,.828.828,0,0,1,.262,1.1c-.053.052-.053.1-.1.157l-.1.1a.794.794,0,0,1-1,.1,5.07,5.07,0,0,0-2.624-.735,4.593,4.593,0,1,0,0,9.185,5.071,5.071,0,0,0,2.624-.735.794.794,0,0,1,1,.1Z" transform="translate(-143.882 -321.854)" fill="#00377a"/>
        <path id="Path_19" data-name="Path 19" d="M242.352,340.38h-.157a.807.807,0,0,1-.787-.787h0v-1.26a5.285,5.285,0,0,1-4.566,2.309,6.027,6.027,0,0,1-6.141-6.3,5.953,5.953,0,0,1,6.141-6.246,5.369,5.369,0,0,1,4.566,2.257V329.1a.807.807,0,0,1,.787-.787h.157a.807.807,0,0,1,.787.787v10.5a.773.773,0,0,1-.787.787Zm-5.459-1.47a4.349,4.349,0,0,0,4.566-4.566,4.449,4.449,0,0,0-4.566-4.514,4.284,4.284,0,0,0-4.461,4.514,4.417,4.417,0,0,0,4.461,4.566Z" transform="translate(-155.855 -321.852)" fill="#00377a"/>
        <path id="Path_20" data-name="Path 20" d="M270.69,329.207a.785.785,0,0,1-.892.682h-.1a5.841,5.841,0,0,0-.892-.1c-2.467,0-3.464,2.887-3.464,6.089v3.674a.807.807,0,0,1-.787.787h-.157a.807.807,0,0,1-.787-.787h0v-10.5a.807.807,0,0,1,.787-.787h.157a.807.807,0,0,1,.787.787h0v1.942c.577-2.047,1.68-2.992,3.464-2.992a5.605,5.605,0,0,1,1.312.158.792.792,0,0,1,.577.84Z" transform="translate(-171.491 -321.807)" fill="#00377a"/>
        <path id="Path_21" data-name="Path 21" d="M292.753,334.728H292.6a.807.807,0,0,1-.787-.787v-1.26a5.286,5.286,0,0,1-4.566,2.309,6.027,6.027,0,0,1-6.141-6.3,5.953,5.953,0,0,1,6.141-6.246,5.369,5.369,0,0,1,4.566,2.257v-7.716a.807.807,0,0,1,.787-.787h.157a.807.807,0,0,1,.787.787h0V333.94A.807.807,0,0,1,292.753,334.728Zm-5.459-1.47a4.349,4.349,0,0,0,4.566-4.566,4.449,4.449,0,0,0-4.566-4.514,4.284,4.284,0,0,0-4.461,4.514,4.418,4.418,0,0,0,4.461,4.566Z" transform="translate(-179.803 -316.2)" fill="#00377a"/>
      </g>
      <g id="Group_2" data-name="Group 2" transform="translate(0.029 -0.036)">
        <path id="Path_22" data-name="Path 22" d="M57.076,337.272H50.358a3.037,3.037,0,0,1-2.572-1.417L30.309,307.88a.906.906,0,0,1,.262-1.207.78.78,0,0,1,.472-.1h3.412a9.164,9.164,0,0,1,7.715,4.251l15.641,25.088a.858.858,0,0,1-.262,1.207A.641.641,0,0,1,57.076,337.272Z" transform="translate(-14.33 -306.564)" fill="#00377a"/>
        <path id="Path_23" data-name="Path 23" d="M26.457,339.514a11.787,11.787,0,0,0-8.817-5.458l-2.992-.262a1.821,1.821,0,0,1-1.364-.84l-1.364-2.2a.852.852,0,0,0-1.155-.262.633.633,0,0,0-.262.262L2.209,343.975h0l-2.1,3.307a.906.906,0,0,0,.262,1.207.535.535,0,0,0,.472.1H7.562a3.037,3.037,0,0,0,2.572-1.417l5.091-8.083a35.541,35.541,0,0,1,6.246-.682A9.2,9.2,0,0,1,26.457,339.514Z" transform="translate(0.019 -317.885)" fill="#549344"/>
        <path id="Path_24" data-name="Path 24" d="M2.208,351.881l-2.1,3.307a.906.906,0,0,0,.262,1.207.78.78,0,0,0,.472.1H7.562a3.037,3.037,0,0,0,2.572-1.417L15.224,347a41.1,41.1,0,0,0-13.016,4.881Z" transform="translate(0.019 -325.792)" fill="#336e27"/>
      </g>
    </g>
  </g>
</svg>
