<svg xmlns="http://www.w3.org/2000/svg" width="100" height="65" viewBox="0 0 100 65">
  <g id="Group_896" data-name="Group 896" transform="translate(2665 -7918)">
    <g id="Group_865" data-name="Group 865" transform="translate(-1482 2856)">
      <rect id="Rectangle_1073" data-name="Rectangle 1073" width="100" height="65" transform="translate(-1183 5062)" fill="#fff" opacity="0"/>
      <path id="Path_2449" data-name="Path 2449" d="M1.758,1.758A5.7,5.7,0,0,0,0,5.933a5.7,5.7,0,0,0,1.758,4.175,5.7,5.7,0,0,0,4.175,1.758,5.7,5.7,0,0,0,4.175-1.758,5.7,5.7,0,0,0,1.758-4.175,5.7,5.7,0,0,0-1.758-4.175A5.7,5.7,0,0,0,5.933,0,5.7,5.7,0,0,0,1.758,1.758Zm0,24.831a5.837,5.837,0,0,0,0,8.35A5.7,5.7,0,0,0,5.933,36.7a5.7,5.7,0,0,0,4.175-1.758,5.837,5.837,0,0,0,0-8.35,5.7,5.7,0,0,0-4.175-1.758A5.7,5.7,0,0,0,1.758,26.589Z" transform="translate(-1153.934 5076.617)" fill="#53ae3b"/>
      <path id="Path_2448" data-name="Path 2448" d="M5.64,18.019A55.415,55.415,0,0,1,7.4,32.522a55.415,55.415,0,0,1-1.758,14.5A58.986,58.986,0,0,1,0,60.21l5.86,4.541a45.7,45.7,0,0,0,8.57-14.8A51.023,51.023,0,0,0,17.58,32.3a50.023,50.023,0,0,0-3.15-17.58A45.335,45.335,0,0,0,5.86,0L0,4.395A63.436,63.436,0,0,1,5.64,17.8Z" transform="translate(-1130.494 5062.114)" fill="#53ae3b"/>
    </g>
  </g>
</svg>
