<svg xmlns="http://www.w3.org/2000/svg" width="60" height="60" viewBox="0 0 60 60">
  <g id="Group_913" data-name="Group 913" transform="translate(-675 -858)">
    <g id="Group_606" data-name="Group 606" transform="translate(675 858)">
      <rect id="Rectangle_483" data-name="Rectangle 483" width="60" height="60" fill="#fff"/>
      <g id="Group_597" data-name="Group 597" transform="translate(3.131 2.423)">
        <path id="Path_2137" data-name="Path 2137" d="M440.049,16.324a12.624,12.624,0,1,0-12.624,12.624A12.639,12.639,0,0,0,440.049,16.324ZM426.127,8.419h4.483l-.59,2.95h-4.483Zm-2.242,11.209L425.3,12.9h4.483l-1.534,7.315a1.368,1.368,0,0,0,1.416,1.652h1.18l-.354,1.888h-3.186A3.34,3.34,0,0,1,423.885,19.628Z" transform="translate(-414.8 -3.7)" fill="#53ae3b"/>
        <path id="Path_2138" data-name="Path 2138" d="M455.362,10.9v.59a32.533,32.533,0,0,1-3.3,14.394l-.236.354,5.309,5.309a39.723,39.723,0,0,1-14.984,14.984l-5.309-5.309-.354.236a32.534,32.534,0,0,1-14.394,3.3h-.59v15.22h.59c23.951,0,48.374-24.423,48.374-48.374v-.59h-15.1ZM422.68,58.8V45.942A35.788,35.788,0,0,0,436.6,42.756l5.309,5.309.354-.236a41.932,41.932,0,0,0,16.046-16.046l.236-.354-5.309-5.309A32.038,32.038,0,0,0,456.424,12.2h12.86C468.93,35.087,445.687,58.33,422.68,58.8Z" transform="translate(-413.595 -2.405)" fill="#53ae3b"/>
      </g>
    </g>
  </g>
</svg>
