<svg xmlns="http://www.w3.org/2000/svg" width="60" height="60" viewBox="0 0 60 60">
  <g id="Group_912" data-name="Group 912" transform="translate(-1435 -698)">
    <g id="Group_911" data-name="Group 911">
      <g id="Group_910" data-name="Group 910">
        <g id="Group_788" data-name="Group 788" transform="translate(1435 698)">
          <rect id="Rectangle_482" data-name="Rectangle 482" width="60" height="60" fill="#fff"/>
          <g id="Group_594" data-name="Group 594" transform="translate(13.32 0)">
            <path id="Path_2123" data-name="Path 2123" d="M371,14.5a12,12,0,1,0,12,12A12.035,12.035,0,0,0,371,14.5Zm5.52,15h-2.4V27.58a3.27,3.27,0,0,0-2.04-3v5.88h-2.4V24.58a3.27,3.27,0,0,0-2.04,3V29.5h-2.4V27.58a5.767,5.767,0,0,1,4.44-5.52V20.5h2.4v1.56a5.664,5.664,0,0,1,4.44,5.52Z" transform="translate(-354.32 -1.78)" fill="#53ae3b"/>
            <path id="Path_2124" data-name="Path 2124" d="M355.1,3.9v60h33.36V3.9Zm1.2,1.2h30.96V50.46H356.3Zm30.96,57.6H356.3V51.66h30.96Z" transform="translate(-355.1 -3.9)" fill="#53ae3b"/>
            <ellipse id="Ellipse_144" data-name="Ellipse 144" cx="3.12" cy="3.12" rx="3.12" ry="3.12" transform="translate(13.56 50.28)" fill="#53ae3b"/>
          </g>
        </g>
      </g>
    </g>
  </g>
</svg>
