<svg xmlns="http://www.w3.org/2000/svg" width="60" height="60" viewBox="0 0 60 60">
  <g id="Group_906" data-name="Group 906" transform="translate(-1055 -538)">
    <g id="Group_781" data-name="Group 781" transform="translate(1055.427 538)">
      <rect id="Rectangle_489" data-name="Rectangle 489" width="60" height="60" transform="translate(-0.427)" fill="#fff"/>
      <g id="Group_600" data-name="Group 600" transform="translate(-0.427 4.568)">
        <path id="Path_2114" data-name="Path 2114" d="M94.3,14.4V12H91.9v2.4a7.219,7.219,0,0,0-6,7.08v2.64h2.4V21.48a4.754,4.754,0,0,1,3.6-4.56v8.64h2.4V16.92a4.754,4.754,0,0,1,3.6,4.56v2.64h2.4V21.48A7.437,7.437,0,0,0,94.3,14.4Z" transform="translate(-63.1 -3.84)" fill="#53ae3b"/>
        <path id="Path_2115" data-name="Path 2115" d="M94.62,5.2a16.32,16.32,0,1,0,16.32,16.32A16.337,16.337,0,0,0,94.62,5.2Zm0,31.44a15.12,15.12,0,1,1,15.12-15.12A15.211,15.211,0,0,1,94.62,36.64Z" transform="translate(-64.62 -5.2)" fill="#53ae3b"/>
        <ellipse id="Ellipse_136" data-name="Ellipse 136" cx="5.52" cy="5.52" rx="5.52" ry="5.52" transform="translate(48.96 40.2)" fill="#53ae3b"/>
        <ellipse id="Ellipse_137" data-name="Ellipse 137" cx="5.52" cy="5.52" rx="5.52" ry="5.52" transform="translate(32.64 40.2)" fill="#53ae3b"/>
        <ellipse id="Ellipse_138" data-name="Ellipse 138" cx="5.52" cy="5.52" rx="5.52" ry="5.52" transform="translate(16.32 40.2)" fill="#53ae3b"/>
        <ellipse id="Ellipse_139" data-name="Ellipse 139" cx="5.52" cy="5.52" rx="5.52" ry="5.52" transform="translate(0 40.2)" fill="#53ae3b"/>
      </g>
    </g>
  </g>
</svg>
