<svg xmlns="http://www.w3.org/2000/svg" width="80" height="80" viewBox="0 0 80 80">
  <g id="Group_898" data-name="Group 898" transform="translate(-920 -100)">
    <g id="_002-success" data-name="002-success" transform="translate(920 100)">
      <path id="Path_2452" data-name="Path 2452" d="M40,0A40,40,0,1,0,80,40,40.045,40.045,0,0,0,40,0Zm0,76.923A36.923,36.923,0,1,1,76.923,40,36.966,36.966,0,0,1,40,76.923Z" fill="#53ae3b"/>
      <path id="Path_2453" data-name="Path 2453" d="M52.388,15.517l-23.645,26.6L14.5,30.722a1.538,1.538,0,0,0-1.922,2.4L27.962,45.433a1.54,1.54,0,0,0,2.112-.18L54.689,17.56a1.539,1.539,0,0,0-2.3-2.043Z" transform="translate(6.461 8.077)" fill="#53ae3b"/>
    </g>
  </g>
</svg>
